<svg xmlns="http://www.w3.org/2000/svg" xmlns:xlink="http://www.w3.org/1999/xlink"
     width="500" height="560"
     viewBox="-300 -200 560 500">
    <defs>
        <style>
            :root {
            --black-color: black;
            <!-- Poner todos los colores con variables -->
            }
        </style>
        <linearGradient id="gradiente-azul" x2="100%" >
            <stop offset="0%" style="stop-color: #0050FF;">
                <animate attributeName="stop-color" dur="5s" repeatCount="indefinite" values="#0050FF;#FFC300;#0050FF;" />
            </stop>
            <stop offset="100%" style="stop-color: #FFC300;">
                <animate attributeName="stop-color" dur="5s" repeatCount="indefinite" values="#FFC300;#0050FF;#FFC300;" />
            </stop>
        </linearGradient>
        <linearGradient id="gradient" x1="0%" y1="0%" x2="100%" y2="0%" spreadMethod="pad">
            <stop offset="0%" stop-color="green" stop-opacity="1" />
            <stop offset="50%" stop-color="yellow" stop-opacity="1" />
            <stop offset="100%" stop-color="red" stop-opacity="1" />
        </linearGradient>
        <path id="canamo" d="M936.96 556.544c-10.24-17.92-37.888-21.504-82.944-10.24-39.424 9.728-88.064 30.208-136.192 57.344-61.44 34.816-118.272 78.848-143.36 115.2 0-39.424 0.512-78.336 0.512-117.76 1.024 1.536 2.56 3.584 4.096 4.608 5.632 5.12 12.8 7.168 20.992 7.168 40.96 0 113.152-54.784 172.544-119.808 71.68-78.336 127.488-173.056 95.232-202.752-32.256-29.696-121.856 34.304-193.536 112.128-37.376 40.96-68.096 82.944-86.528 119.296-5.632 10.752-9.728 20.48-12.8 29.696 0-36.864 0-73.216-0.512-110.08 37.376-14.848 56.832-113.664 56.832-211.968 0-105.984-23.04-214.016-66.56-214.016s-66.56 107.52-66.56 214.016c0 100.352 20.48 201.728 59.392 212.48 0 33.28 0 67.072 0.512 100.352-2.56-6.656-5.632-13.312-9.728-20.992-18.432-36.352-49.152-78.848-86.528-119.296-71.68-78.336-161.28-141.824-193.536-112.128-15.36 13.824-12.288 41.984 8.704 82.944 18.432 36.352 49.152 78.848 86.528 119.296 37.376 40.96 76.8 75.264 111.616 96.768 25.088 15.36 45.056 23.552 60.416 23.552 8.704 0 15.872-2.56 21.504-7.68l1.024-1.024c0 43.52 0 87.552-0.512 131.072-16.384-39.424-81.408-92.16-152.576-132.608-48.128-27.136-96.256-47.616-136.192-57.344-45.056-11.264-72.704-7.68-82.944 10.24-21.504 37.888 60.928 111.104 153.088 163.328 48.128 27.136 96.256 47.616 136.192 57.344 16.896 4.096 31.744 6.144 44.032 6.144 18.944 0 31.744-5.12 38.4-15.872-0.512 77.312-1.536 154.624-2.56 231.424 0 10.752 16.896 10.752 16.896 0 1.024-74.24 2.048-148.48 2.56-222.72 7.168 4.608 16.896 7.168 29.696 7.168 12.288 0 26.624-2.048 44.032-6.144 39.424-9.728 88.064-30.208 136.192-57.344 92.16-51.2 174.08-123.904 152.576-161.792z m-331.264-24.576c17.92-34.816 47.616-75.776 83.456-115.2 79.872-87.04 151.04-123.904 164.864-111.104 13.824 12.8-16.896 87.04-96.768 174.08-79.872 87.04-151.04 123.904-164.864 111.104-3.584-4.096-6.144-20.992 13.312-58.88z m-62.464 58.88c-4.096 4.096-20.992 4.608-57.344-17.92-33.28-20.48-71.168-53.76-107.52-93.184-35.84-39.424-65.536-80.384-83.456-115.2-19.456-37.888-17.408-54.784-12.8-58.88 2.048-1.536 4.608-2.56 8.192-2.56 24.064 0 87.04 37.888 156.672 113.664 36.352 39.424 66.048 80.384 83.456 115.2 19.456 37.888 17.408 54.784 12.8 58.88z m-3.072 165.888c-3.072 5.12-18.944 10.752-60.416 0.512-37.888-9.216-84.48-29.184-131.072-55.296-102.912-58.368-154.624-119.296-145.408-135.68 1.536-3.072 8.192-6.144 21.504-6.144 9.216 0 22.016 1.536 38.912 5.632 37.888 9.216 84.48 29.184 131.072 55.296 102.912 58.368 154.624 119.296 145.408 135.68zM518.656 230.4c0-118.272 27.648-193.536 46.592-193.536s46.592 75.264 46.592 193.536-28.16 193.024-46.592 193.024-46.592-75.264-46.592-193.024z m254.976 471.552c-46.592 26.112-93.184 46.08-131.072 55.296-41.472 10.24-57.344 4.608-60.416-0.512-9.216-16.384 43.008-77.312 145.408-135.68 46.592-26.112 93.184-46.08 131.072-55.296 16.896-4.096 29.696-5.632 38.912-5.632 13.312 0 19.968 3.072 21.504 6.144 9.728 16.384-42.496 77.312-145.408 135.68z" fill="#9ACD32" />
        <path id="git" d="M24.92 12.183c0-1.586-.604-2.864-1.585-3.83.172-.547.398-1.763-.229-3.321 0 0-1.114-.348-3.628 1.315a12.695 12.695 0 0 0-3.081-.366c-1.154 0-2.322.143-3.409.44-2.596-1.747-3.74-1.391-3.74-1.391-.748 1.847-.287 3.215-.145 3.554-.883.936-1.414 2.133-1.414 3.594 0 1.111.128 2.099.44 2.964l.325.732c.879 1.614 2.606 2.655 5.677 2.983-.434.289-.885.779-1.062 1.612-.594.28-2.475.966-3.603-.944 0 0-.633-1.148-1.842-1.235 0 0-1.174-.017-.08.722 0 0 .782.367 1.326 1.738 0 0 .705 2.342 4.114 1.593v2.417s-.076.857-.867 1.143c0 0-.469.312.034.497 0 0 2.205.174 2.205-1.604v-2.643s-.09-1.047.429-1.404v4.332s-.032 1.031-.576 1.421c0 0-.362.646.433.468 0 0 1.517-.211 1.584-1.967l.035-4.383h.363l.033 4.383c.076 1.748 1.59 1.967 1.59 1.967.793.179.429-.468.429-.468-.54-.389-.579-1.421-.579-1.421v-4.297c.52.402.436 1.369.436 1.369v2.643c0 1.777 2.2 1.604 2.2 1.604.505-.186.036-.498.036-.498-.793-.286-.867-1.143-.867-1.143v-3.461c0-1.346-.574-2.056-1.137-2.435 3.277-.318 4.845-1.368 5.572-2.99-.015.027.26-.726.26-.726.25-.859.325-1.855.325-2.963h-.002z" fill="red"/>
        <path id="coret" d="M 0 -2 a 2 2 0 0 1 4 0 c 0 3 -4 5 -4 6 c 0 -1 -4 -3 -4 -6 a 2 2 0 0 1 4 0"/>

        <path id="koko" d="M 0 -6.5 A 1 1 0 0 0 -3.75 0 A 1 1 0 0 1 -7.5 6.5 A 1 1 0 0 0 0 6.5 A 1 1 0 0 1 7.5 6.5 A 1 1 0 0 0 3.75 0 A 1 1 0 0 1 0 -6.5 Z" transform="scale(0.6)"/>
        <path id="koko2" d="M 0 -6.5 A 1 1 0 0 0 -3.75 0 A 1 1 0 0 1 -7.5 6.5 A 1 1 0 0 0 0 6.5 A 1 1 0 0 1 7.5 6.5 A 1 1 0 0 0 3.75 0 A 1 1 0 0 1 0 -6.5 Z" transform="scale(0.3)"/>


        <path id="triangulo" d="M -10 0 L 10 0 L 0 -20 L -10 0" fill="#6B8E23" stroke="green" stroke-width="1"/>
        <path id="triangulo2" d="M -10 0 L 10 0 L 0 -20 L -10 0" fill="green" stroke="yellow" stroke-width="0.6"/>
        <path id="triangulo3" d="M -10 0 L 10 0 L 0 -20 L -10 0" fill="#556B2F" stroke="green" stroke-width="0.8"/>
        <!-- petalos -->
        <path id="petalo" d="M 30 0 A 1 1 0 0 0 30 0 L 0 0 C 10 0 26 -16 30 0 M 0 0 C 0 -10 16 -25 0 -30 L 0 0" fill="#66CDAA" stroke="green" stroke-width="0.2" transform="scale(2)"/>
        <path id="petalo2" d="M 30 0 A 1 1 0 0 0 30 0 L 0 0 C 10 0 26 -16 30 0 M 0 0 C 0 -10 16 -25 0 -30 L 0 0" fill="green" stroke="green" stroke-width="0.2" transform="scale(2)" />


        <!-- hexagono -->
        <path id="hexagono" d="M52.279,73.935H21.656L0,52.279V21.655L21.655,0h30.625l21.655,21.655v30.625L52.279,73.935z M22.898,70.935h28.139
			l19.898-19.897v-28.14L51.037,2.999H22.898L3,22.897v28.14L22.898,70.935z" />

        <path id="spin" d="M 0 10 C 0 25 35 15 50 0 C 35 -15 0 -25 0 -10 M 5 5 C 5 5 5 5 5 5 L 5 5 C 4 11 12 12 15 10 C 25 6.6667 35 3.3333 45 0 C 35 -3.3333 25 -6.6667 15 -10 C 12 -12 4 -11 5 -5 C 5 -1.6667 5 1.6667 5 5"/>
        <path id="spi2" d="M 0 10 L 5 5 C 4 11 12 12 15 10 C 25 6.6667 35 3.3333 45 0 C 35 -3.3333 25 -6.6667 15 -10 C 12 -12 4 -11 5 -5 C 5 -1.6667 5 1.6667 5 5"/>
        <g id="figura" transform="rotate(90)">
            <use href="#spin" fill="white" x="0" transform="scale(2)"/>
            <use href="#spin" fill="#FFD700" x="2" transform="scale(1.8)"/>
            <use href="#spin" fill="white" x="4" transform="scale(1.6)"/>
            <use href="#spin" fill="#FFD700" x="6.5" transform="scale(1.4)"/>
            <use href="#spin" fill="white" x="10" transform="scale(1.2)"/>
            <use href="#spin" fill="#FFD700" x="16" transform="scale(1)"/>
            <use href="#spin" fill="white" x="25" transform="scale(0.8)"/>
            <use href="#spin" fill="#FFD700" x="40" transform="scale(0.6)"/>
        </g>
        <g id="figTri" >
            <!-- Grupo para todos los elementos use
<circle r="150" fill="red"/>
<circle r="145" fill="orange"/>
<circle r="140" fill="red"/>
<circle r="135" fill="orange"/>
<circle r="130" fill="red"/>
<circle r="125" fill="orange"/>
<circle r="120" fill="red"/>  -->
            <circle r="115" fill="#8FBC8B"/>
            <circle r="110" fill="#F0E68C"/>
            <circle r="105" fill="#8FBC8B"/>
            <circle r="100" fill="#F0E68C"/>
            <circle r="95" fill="#8FBC8B"/>
            <circle r="90" fill="#F0E68C"/>
            <circle r="85" fill="#8FBC8B"/>
            <circle r="77" fill="#F0E68C"/>
            <circle r="70" fill="#8FBC8B"/>
            <circle r="65" fill="#F0E68C"/>
            <circle r="60" fill="#8FBC8B"/>
            <circle r="55" fill="#F0E68C"/>
            <circle r="50" fill="#8FBC8B"/>
            <circle r="45" fill="#F0E68C"/>
            <circle r="40" fill="#8FBC8B"/>
            <circle r="35" fill="#F0E68C"/>
            <circle r="30" fill="#8FBC8B"/>


        </g>
    </defs>
    <ellipse cx="0" cy="0" rx="200" ry="80" class="ellipse" fill="#66CDAA" stroke-width="2" stroke="url(#gradiente-azul)">
        <animateTransform
                attributeName="transform"
                attributeType="XML"
                type="rotate"
                from="0 0 0"
                to="360 0 0"
                dur="5s"
                repeatCount="indefinite"
        />
    </ellipse>
    <ellipse cx="0" cy="0" rx="200" ry="80" class="ellipse" fill="#66CDAA" stroke-width="2" stroke="url(#gradiente-azul)">
        <animateTransform
                attributeName="transform"
                attributeType="XML"
                type="rotate"
                from="360 0 0"
                to="0 0 0"
                dur="5s"
                repeatCount="indefinite"
        />

    </ellipse>
    <polygon points="0,-300 180,-60 300,0 180,60 0,300 -180,60 -300,0 -180,-60" fill="none" stroke-width="2" stroke="url(#gradiente-azul)">
        <animateTransform
                attributeName="transform"
                attributeType="XML"
                type="scale"
                values="0.8;0.5;0.8"
                dur="5s"
                repeatCount="indefinite"
        />
    </polygon>
    <polygon points="0,-300 180,-60 300,0 180,60 0,300 -180,60 -300,0 -180,-60" fill="none" stroke-width="2" stroke="url(#gradiente-azul)">
        <animateTransform
                attributeName="transform"
                attributeType="XML"
                type="scale"
                values="0.8;0.5;0.8"
                dur="5s"
                repeatCount="indefinite"
        />
    </polygon>
    <polygon points="0,-300 180,-60 300,0 180,60 0,300 -180,60 -300,0 -180,-60" fill="none" stroke-width="2" stroke="url(#gradiente-azul)">
        <animateTransform
                attributeName="transform"
                attributeType="XML"
                type="scale"
                values="0.8.3;0.5;0.83"
                dur="5s"
                repeatCount="indefinite"
        />
    </polygon>
    <polygon points="0,-300 180,-60 300,0 180,60 0,300 -180,60 -300,0 -180,-60" fill="none" stroke-width="2" stroke="url(#gradiente-azul)" transform="rotate(45) scale(0.8)">
        <animateTransform
                attributeName="transform"
                attributeType="XML"
                type="scale"
                values="0.83;0.5;0.83g"
                dur="5s"
                repeatCount="indefinite"
        />
    </polygon>

    <use xlink:href="#hexagono" x="-37" y="-37" transform="scale(6)" stroke="#6B8E23" stroke-width="1" fill="url(#gradiente-azul)"/>

    <!-- Circulos rojos detras -->
    <circle r="45" fill="#808000" cx="150" stroke="#00FF7F" stroke-width="2"/>
    <circle r="45" fill="#808000" cx="-150" stroke="#00FF7F" stroke-width="2"/>
    <circle r="45" fill="#808000" cy="-150" stroke="#00FF7F" stroke-width="2"/>
    <circle r="45" fill="#808000" cy="150" stroke="#00FF7F" stroke-width="2"/>
    <!-- Triangulo -->
    <use xlink:href="#triangulo3" y="-38" transform="rotate(22.5) scale(4)"/>
    <use xlink:href="#triangulo3" y="-38" transform="rotate(67.5) scale(4)"/>
    <use xlink:href="#triangulo3" y="-38" transform="rotate(22.5) scale(4)"/>
    <use xlink:href="#triangulo3" y="-38" transform="rotate(112.5) scale(4)"/>
    <use xlink:href="#triangulo3" y="-38" transform="rotate(157.5) scale(4)"/>
    <use xlink:href="#triangulo3" y="-38" transform="rotate(202.5) scale(4)"/>
    <use xlink:href="#triangulo3" y="-38" transform="rotate(247.5) scale(4)"/>
    <use xlink:href="#triangulo3" y="-38" transform="rotate(292.5) scale(4)"/>
    <use xlink:href="#triangulo3" y="-38" transform="rotate(337.5) scale(4)"/>



    <!-- Circulos centrales -->
    <use xlink:href="#figTri" />



    <!-- Hexagonos 3 capa -->
    <use xlink:href="#hexagono" x="-37" y="-37" transform="scale(4.9)" stroke="#6B8E23" stroke-width="1" fill="url(#gradiente-azul)"/>

    <use xlink:href="#hexagono" x="-37" y="-37" transform="scale(4.2)" stroke="#6B8E23" stroke-width="1" fill="url(#gradiente-azul)"/>

    <!-- Triangulo -->
    <use xlink:href="#triangulo" y="-38" transform="rotate(22.5) scale(3)"/>
    <use xlink:href="#triangulo" y="-38" transform="rotate(67.5) scale(3)"/>
    <use xlink:href="#triangulo" y="-38" transform="rotate(22.5) scale(3)"/>
    <use xlink:href="#triangulo" y="-38" transform="rotate(112.5) scale(3)"/>
    <use xlink:href="#triangulo" y="-38" transform="rotate(157.5) scale(3)"/>
    <use xlink:href="#triangulo" y="-38" transform="rotate(202.5) scale(3)"/>
    <use xlink:href="#triangulo" y="-38" transform="rotate(247.5) scale(3)"/>
    <use xlink:href="#triangulo" y="-38" transform="rotate(292.5) scale(3)"/>
    <use xlink:href="#triangulo" y="-38" transform="rotate(337.5) scale(3)"/>

    <use xlink:href="#triangulo2" y="-44" transform="rotate(22.5) scale(2)"/>
    <use xlink:href="#triangulo2" y="-44" transform="rotate(67.5) scale(2)"/>
    <use xlink:href="#triangulo2" y="-44" transform="rotate(22.5) scale(2)"/>
    <use xlink:href="#triangulo2" y="-44" transform="rotate(112.5) scale(2)"/>
    <use xlink:href="#triangulo2" y="-44" transform="rotate(157.5) scale(2)"/>
    <use xlink:href="#triangulo2" y="-44" transform="rotate(202.5) scale(2)"/>
    <use xlink:href="#triangulo2" y="-44" transform="rotate(247.5) scale(2)"/>
    <use xlink:href="#triangulo2" y="-44" transform="rotate(292.5) scale(2)"/>
    <use xlink:href="#triangulo2" y="-44" transform="rotate(337.5) scale(2)"/>

    <!--
    <use xlink:href="#hexagono" x="-37" y="-37" transform="scale(1.78)"/>
    <use xlink:href="#hexagono" x="-37" y="-37" transform="scale(1.48)"/>
    <use xlink:href="#hexagono" x="-37" y="-37" transform="scale(1.18)"/>
-->


    <use xlink:href="#triangulo2" y="50" transform="rotate(202.5) scale(2)"/>
    <use xlink:href="#triangulo2" y="50" transform="rotate(67.5) scale(2)"/>
    <use xlink:href="#triangulo2" y="50" transform="rotate(22.5) scale(2)"/>
    <use xlink:href="#triangulo2" y="50" transform="rotate(112.5) scale(2)"/>
    <use xlink:href="#triangulo2" y="50" transform="rotate(157.5) scale(2)"/>
    <use xlink:href="#triangulo2" y="50" transform="rotate(202.5) scale(2)"/>
    <use xlink:href="#triangulo2" y="50" transform="rotate(247.5) scale(2)"/>
    <use xlink:href="#triangulo2" y="50" transform="rotate(292.5) scale(2)"/>
    <use xlink:href="#triangulo2" y="50" transform="rotate(337.5) scale(2)"/>



    <use xlink:href="#figura" y="80" />
    <use xlink:href="#figura" y="80" transform="rotate(45)"/>
    <use xlink:href="#figura" y="80" transform="rotate(90)"/>
    <use xlink:href="#figura" y="80" transform="rotate(135)"/>
    <use xlink:href="#figura" y="80" transform="rotate(180)"/>
    <use xlink:href="#figura" y="80" transform="rotate(225)"/>
    <use xlink:href="#figura" y="80" transform="rotate(270)"/>
    <use xlink:href="#figura" y="80" transform="rotate(315)"/>

    <use xlink:href="#figura" y="-140" transform="rotate(45) scale(0.5)"/>
    <use xlink:href="#figura" y="-140" transform="rotate(135) scale(0.5)"/>
    <use xlink:href="#figura" y="-140" transform="rotate(225) scale(0.5)"/>
    <use xlink:href="#figura" y="-140" transform="rotate(315) scale(0.5)"/>






    <use xlink:href="#petalo" transform="rotate(90)"/>
    <use xlink:href="#petalo2" transform="rotate(90) scale(0.5)"/>

    <use xlink:href="#koko2" x="53" transform="rotate(134)"/>

    <use xlink:href="#petalo" x="" transform="rotate(180)"/>
    <use xlink:href="#petalo2" transform="rotate(180) scale(0.5)"/>


    <use xlink:href="#koko2" x="53" transform="rotate(224.5)"/>

    <use xlink:href="#petalo" x="" transform="rotate(270)"/>
    <use xlink:href="#petalo2" transform="rotate(270) scale(0.5)"/>


    <use xlink:href="#koko2" x="53" transform="rotate(45)"/>

    <use xlink:href="#petalo" x="" transform="rotate(360)"/>
    <use xlink:href="#petalo2" transform="rotate(3600) scale(0.5)"/>


    <use xlink:href="#koko2" x="53" transform="rotate(314.5)"/>



    <use xlink:href="#koko" x="-115" />
    <use xlink:href="#koko" x="115" />
    <use xlink:href="#koko" y="-115" />
    <use xlink:href="#koko" y="115" />
    <use xlink:href="#koko" x="115" transform="rotate(45)"/>
    <use xlink:href="#koko" x="115" transform="rotate(314.5)"/>
    <use xlink:href="#koko" x="115" transform="rotate(134)"/>
    <use xlink:href="#koko" x="115" transform="rotate(224.5)"/>







    <use xlink:href="coret" fill="red" transform="scale(4)"/>
    <circle r="2" fill="pink"/>

    <circle r="7" cx="-45" fill="pink" stroke="red"/>
    <circle r="7" cx="45" fill="pink" stroke="red"/>
    <circle r="7" cy="45" fill="pink" stroke="red"/>
    <circle r="7" cy="-45" fill="pink" stroke="red"/>

    <circle r="4" fill="red" cx="145" transform="rotate(22.5)"/>
    <circle r="4" fill="red" cx="245" transform="rotate(22.5)"/>

    <circle r="4" fill="red" cx="145" transform="rotate(67.5)"/>
    <circle r="4" fill="red" cx="245" transform="rotate(67.5)"/>

    <circle r="4" fill="red" cx="145" transform="rotate(112.5)"/>
    <circle r="4" fill="red" cx="245" transform="rotate(112.5)"/>

    <circle r="4" fill="red" cx="145" transform="rotate(157.5)"/>
    <circle r="4" fill="red" cx="245" transform="rotate(157.5)"/>

    <circle r="4" fill="red" cx="145" transform="rotate(202.5)"/>
    <circle r="4" fill="red" cx="245" transform="rotate(202.5)"/>

    <circle r="4" fill="red" cx="145" transform="rotate(247.5)"/>
    <circle r="4" fill="red" cx="245" transform="rotate(247.5)"/>

    <circle r="4" fill="red" cx="145" transform="rotate(292.5)"/>
    <circle r="4" fill="red" cx="245" transform="rotate(292.5)"/>

    <circle r="4" fill="red" cx="145" transform="rotate(337.5)"/>
    <circle r="4" fill="red" cx="245" transform="rotate(337.5)"/>

    <use xlink:href="#git" x="-16.5" y="98" transform="scale(0.4)"/>
    <use xlink:href="#git" x="-16.5" y="98" transform="scale(0.4) rotate(180)"/>
    <use xlink:href="#git" x="-16.5" y="98" transform="scale(0.4) rotate(270)"/>
    <use xlink:href="#git" x="-16.5" y="98" transform="scale(0.4) rotate(90)"/>

    <use xlink:href="#canamo" x="-566" y="-1900" transform="scale(0.015) rotate(89.98)" />
    <use xlink:href="#canamo" x="-566" y="-1900" transform="scale(0.015) rotate(179.6)" />
    <use xlink:href="#canamo" x="-566" y="-1900" transform="scale(0.015) rotate(269.4)" />
    <use xlink:href="#canamo" x="-566" y="-1900" transform="scale(0.015) rotate(359.2)" />








</svg>
