<svg xmlns="http://www.w3.org/2000/svg" xmlns:xlink="http://www.w3.org/1999/xlink"
     width="520" height="900"
     viewBox="-220 -120 450 200">
    <defs>
        <style>
            :root {
            --black-color: black;
            <!-- Poner todos los colores con variables -->
            }
        </style>
        <radialGradient id="gradiente">
            <stop stop-color="yellow" offset="50%"/>
            <stop stop-color="red" offset="90%"/>
            <stop stop-color="black" offset="100%"/>
        </radialGradient>
        <radialGradient id="gradientegreen">
            <stop stop-color="green" offset="35%"/>
            <stop stop-color="white" offset="200%"/>
            <stop stop-color="white" offset="80%"/>
        </radialGradient>
        <linearGradient id="gradientlinear" x1="0%" y1="0%" x2="0%" y2="0%">
            <stop stop-color="black" offset="0%"/>
            <stop stop-color="red" offset="30%"/>
            <stop stop-color="red" offset="70%"/>
            <stop stop-color="black" offset="100%"/>
        </linearGradient>
        <path id="lol" d=""/>
        <g id="Icons" stroke="black" stroke-width="1" fill="pink" fill-rule="evenodd">
            <g id="Color-" transform="translate(-201.000000, -262.000000)" fill="#pink">
                <path d="M225.46152,262 L225.459405,262 C225.417982,262 225.379046,262 225.341977,262.000496 C225.046416,262.003473 224.560531,262.008186 224.516869,262.008682 C223.451307,262.008682 221.319312,262.158762 219.029211,263.166653 C217.719836,263.742538 216.54207,264.521217 215.528753,265.481107 C214.320635,266.624814 213.336427,268.034944 212.603992,269.672923 C211.53134,272.071222 211.785975,276.11085 211.990479,279.357162 L211.991226,279.362248 C212.013119,279.709912 212.036132,280.072956 212.057155,280.426698 C211.899796,280.498761 211.644663,280.574793 211.268619,280.574793 C210.663564,280.574793 209.944067,280.381922 209.130653,280.001885 C208.891318,279.890752 208.618148,279.834565 208.31674,279.834565 C207.832473,279.834565 207.321958,279.976707 206.879114,280.236307 C206.321952,280.562514 205.961954,281.023544 205.86418,281.534684 C205.799744,281.872797 205.802854,282.541087 206.547354,283.218802 C206.956861,283.591893 207.558432,283.93596 208.334902,284.24195 C208.53866,284.321951 208.780482,284.398355 209.03661,284.479349 C209.925408,284.761027 211.270609,285.186584 211.621401,286.00979 C211.799161,286.427161 211.722658,286.976379 211.39463,287.640203 C211.386047,287.658311 211.377464,287.676048 211.369627,287.694653 C211.287651,287.88554 210.522874,289.612822 208.954137,291.434493 C208.062727,292.470415 207.080882,293.336165 206.037462,294.008423 C204.763912,294.829149 203.385871,295.365715 201.942026,295.602866 C201.375036,295.695643 200.970132,296.19934 201.001729,296.771752 C201.011431,296.936716 201.050242,297.101183 201.11754,297.260317 C201.118037,297.26131 201.118659,297.262302 201.119157,297.26317 C201.348416,297.797876 201.879953,298.252084 202.744121,298.652711 C203.800105,299.141772 205.379416,299.553189 207.437769,299.875055 C207.541763,300.072267 207.649737,300.567902 207.724498,300.907256 C207.802743,301.267944 207.884345,301.638802 208.000654,302.032731 C208.126168,302.459528 208.451708,302.969551 209.288011,302.969551 C209.604968,302.969551 209.969444,302.898356 210.391514,302.816743 C211.00963,302.695811 211.854889,302.530847 212.909878,302.530847 C213.494781,302.530847 214.100954,302.582197 214.711109,302.683283 C215.887258,302.878511 216.901196,303.592693 218.07436,304.419744 C219.7915,305.630057 221.735162,307 224.704829,307 C224.78581,307 224.867039,306.997395 224.947274,306.991814 C225.045421,306.996403 225.167078,307 225.295453,307 C228.265991,307 230.209156,305.629561 231.92443,304.42024 L231.927167,304.417759 C233.100579,303.5917 234.113398,302.878511 235.289174,302.683283 C235.899079,302.582321 236.505129,302.530847 237.09028,302.530847 C238.098123,302.530847 238.896113,302.658973 239.608644,302.797518 C240.07363,302.888806 240.434996,302.932714 240.712271,302.932714 L240.739389,302.93321 L240.767502,302.93321 C241.379149,302.93321 241.828586,302.598445 242.000126,302.012638 C242.114071,301.627019 242.195425,301.264843 242.27566,300.898078 C242.345569,300.580058 242.457275,300.070283 242.561269,299.870962 C244.620991,299.548476 246.19968,299.137927 247.255789,298.64899 C248.117966,298.250224 248.648881,297.796512 248.879508,297.264038 C248.948672,297.104408 248.9891,296.938948 248.998181,296.770512 C249.030648,296.199092 248.625122,295.694402 248.057759,295.601626 C241.640875,294.547098 238.750074,287.972859 238.630531,287.693537 C238.622819,287.67518 238.614111,287.656947 238.60503,287.63921 C238.277002,286.975138 238.201246,286.426541 238.37913,286.008426 C238.729176,285.185964 240.073506,284.760407 240.962926,284.478852 C241.220422,284.397983 241.463115,284.321083 241.665256,284.241453 C242.540868,283.896642 243.166697,283.522559 243.579561,283.097746 C244.072661,282.59132 244.168693,282.106103 244.162722,281.788579 C244.147671,281.020319 243.558663,280.337642 242.621725,280.003374 C242.305265,279.872891 241.944397,279.804053 241.576936,279.804053 C241.326779,279.804053 240.956333,279.838286 240.605665,280.001513 C239.854945,280.351782 239.182469,280.543289 238.605155,280.570576 C238.298149,280.555072 238.082823,280.488714 237.943376,280.425334 C237.960916,280.12567 237.980322,279.81782 238.000349,279.496823 L238.008684,279.359395 C238.214307,276.110974 238.469814,272.068246 237.396663,269.668209 C236.661119,268.024401 235.673428,266.610675 234.460458,265.464487 C233.443161,264.503976 232.261414,263.725422 230.947312,263.149909 C228.660446,262.14946 226.528575,262 225.46152,262" id="Snapchat">

                </path>
            </g>
        </g>
        <g id="Icons" stroke="black" stroke-width="1" fill="pink" fill-rule="evenodd">
            <g id="Color-" transform="translate(-201.000000, -262.000000)" fill="#pink">
                <path d="M225.46152,262 L225.459405,262 C225.417982,262 225.379046,262 225.341977,262.000496 C225.046416,262.003473 224.560531,262.008186 224.516869,262.008682 C223.451307,262.008682 221.319312,262.158762 219.029211,263.166653 C217.719836,263.742538 216.54207,264.521217 215.528753,265.481107 C214.320635,266.624814 213.336427,268.034944 212.603992,269.672923 C211.53134,272.071222 211.785975,276.11085 211.990479,279.357162 L211.991226,279.362248 C212.013119,279.709912 212.036132,280.072956 212.057155,280.426698 C211.899796,280.498761 211.644663,280.574793 211.268619,280.574793 C210.663564,280.574793 209.944067,280.381922 209.130653,280.001885 C208.891318,279.890752 208.618148,279.834565 208.31674,279.834565 C207.832473,279.834565 207.321958,279.976707 206.879114,280.236307 C206.321952,280.562514 205.961954,281.023544 205.86418,281.534684 C205.799744,281.872797 205.802854,282.541087 206.547354,283.218802 C206.956861,283.591893 207.558432,283.93596 208.334902,284.24195 C208.53866,284.321951 208.780482,284.398355 209.03661,284.479349 C209.925408,284.761027 211.270609,285.186584 211.621401,286.00979 C211.799161,286.427161 211.722658,286.976379 211.39463,287.640203 C211.386047,287.658311 211.377464,287.676048 211.369627,287.694653 C211.287651,287.88554 210.522874,289.612822 208.954137,291.434493 C208.062727,292.470415 207.080882,293.336165 206.037462,294.008423 C204.763912,294.829149 203.385871,295.365715 201.942026,295.602866 C201.375036,295.695643 200.970132,296.19934 201.001729,296.771752 C201.011431,296.936716 201.050242,297.101183 201.11754,297.260317 C201.118037,297.26131 201.118659,297.262302 201.119157,297.26317 C201.348416,297.797876 201.879953,298.252084 202.744121,298.652711 C203.800105,299.141772 205.379416,299.553189 207.437769,299.875055 C207.541763,300.072267 207.649737,300.567902 207.724498,300.907256 C207.802743,301.267944 207.884345,301.638802 208.000654,302.032731 C208.126168,302.459528 208.451708,302.969551 209.288011,302.969551 C209.604968,302.969551 209.969444,302.898356 210.391514,302.816743 C211.00963,302.695811 211.854889,302.530847 212.909878,302.530847 C213.494781,302.530847 214.100954,302.582197 214.711109,302.683283 C215.887258,302.878511 216.901196,303.592693 218.07436,304.419744 C219.7915,305.630057 221.735162,307 224.704829,307 C224.78581,307 224.867039,306.997395 224.947274,306.991814 C225.045421,306.996403 225.167078,307 225.295453,307 C228.265991,307 230.209156,305.629561 231.92443,304.42024 L231.927167,304.417759 C233.100579,303.5917 234.113398,302.878511 235.289174,302.683283 C235.899079,302.582321 236.505129,302.530847 237.09028,302.530847 C238.098123,302.530847 238.896113,302.658973 239.608644,302.797518 C240.07363,302.888806 240.434996,302.932714 240.712271,302.932714 L240.739389,302.93321 L240.767502,302.93321 C241.379149,302.93321 241.828586,302.598445 242.000126,302.012638 C242.114071,301.627019 242.195425,301.264843 242.27566,300.898078 C242.345569,300.580058 242.457275,300.070283 242.561269,299.870962 C244.620991,299.548476 246.19968,299.137927 247.255789,298.64899 C248.117966,298.250224 248.648881,297.796512 248.879508,297.264038 C248.948672,297.104408 248.9891,296.938948 248.998181,296.770512 C249.030648,296.199092 248.625122,295.694402 248.057759,295.601626 C241.640875,294.547098 238.750074,287.972859 238.630531,287.693537 C238.622819,287.67518 238.614111,287.656947 238.60503,287.63921 C238.277002,286.975138 238.201246,286.426541 238.37913,286.008426 C238.729176,285.185964 240.073506,284.760407 240.962926,284.478852 C241.220422,284.397983 241.463115,284.321083 241.665256,284.241453 C242.540868,283.896642 243.166697,283.522559 243.579561,283.097746 C244.072661,282.59132 244.168693,282.106103 244.162722,281.788579 C244.147671,281.020319 243.558663,280.337642 242.621725,280.003374 C242.305265,279.872891 241.944397,279.804053 241.576936,279.804053 C241.326779,279.804053 240.956333,279.838286 240.605665,280.001513 C239.854945,280.351782 239.182469,280.543289 238.605155,280.570576 C238.298149,280.555072 238.082823,280.488714 237.943376,280.425334 C237.960916,280.12567 237.980322,279.81782 238.000349,279.496823 L238.008684,279.359395 C238.214307,276.110974 238.469814,272.068246 237.396663,269.668209 C236.661119,268.024401 235.673428,266.610675 234.460458,265.464487 C233.443161,264.503976 232.261414,263.725422 230.947312,263.149909 C228.660446,262.14946 226.528575,262 225.46152,262" id="Snapchat">

                </path>
            </g>
        </g>
        <path id="triangulo3" d="M -10 0 L 10 0 L 0 -20 L -10 0" fill="url(#gradientegreen)" stroke="black" stroke-width="0.4"/>



        <path id="spin" d="M 0 10 C 0 25 35 15 50 0 C 35 -15 0 -25 0 -10 M 5 5 C 5 5 5 5 5 5 L 5 5 C 4 11 12 12 15 10 C 25 6.6667 35 3.3333 45 0 C 35 -3.3333 25 -6.6667 15 -10 C 12 -12 4 -11 5 -5 C 5 -1.6667 5 1.6667 5 5 Z"/>
        <path id="spi2" d="M 0 10 L 5 5 C 4 11 12 12 15 10 C 25 6.6667 35 3.3333 45 0 C 35 -3.3333 25 -6.6667 15 -10 C 12 -12 4 -11 5 -5 C 5 -1.6667 5 1.6667 5 5Z"/>
        <!-- corzaon -->
        <path id="corazon" fill-rule="evenodd" clip-rule="evenodd" d="M12.4997 18.9911L9.5767 15.9911L6.6767 12.9911C5.10777 11.3331 5.10777 8.73809 6.6767 7.08009C7.44494 6.34175 8.48548 5.95591 9.54937 6.01489C10.6133 6.07387 11.6048 6.57236 12.2867 7.39109L12.4997 7.60009L12.7107 7.38209C13.3926 6.56336 14.3841 6.06487 15.448 6.00589C16.5119 5.94691 17.5525 6.33275 18.3207 7.07109C19.8896 8.72909 19.8896 11.3241 18.3207 12.9821L15.4207 15.9821L12.4997 18.9911Z" stroke="#000000" stroke-width="1.5" stroke-linecap="round" stroke-linejoin="round"/>
        <!-- hexagono -->
        <path id="hexagono" d="M52.279,73.935H21.656L0,52.279V21.655L21.655,0h30.625l21.655,21.655v30.625L52.279,73.935z M22.898,70.935h28.139
			l19.898-19.897v-28.14L51.037,2.999H22.898L3,22.897v28.14L22.898,70.935z" fill="brown" stroke="black" stroke-width="0.5"/>
        <path id="hexagono2" d="M52.279,73.935H21.656L0,52.279V21.655L21.655,0h30.625l21.655,21.655v30.625L52.279,73.935z M22.898,70.935h28.139
			l19.898-19.897v-28.14L51.037,2.999H22.898L3,22.897v28.14L22.898,70.935z" fill="brown" stroke="black" stroke-width="0.5"/>
        <g id="figura" transform="rotate(90)">
           <!-- <use href="#hexagono" fill="red" x="-50" y="10" transform="scale(2)"/>-->

            <use href="#spin" fill="black" x="0" transform="scale(2)"/>
            <use href="#spin" fill="red" x="2" transform="scale(1.8)"/>
            <use href="#spin" fill="white" x="4" transform="scale(1.6)"/>
            <use href="#spin" fill="red" x="6.5" transform="scale(1.4)"/>
            <use href="#spin" fill="white" x="10" transform="scale(1.2)"/>
            <use href="#spin" fill="red" x="16" transform="scale(1)"/>
            <use href="#spin" fill="white" x="25" transform="scale(0.8)"/>
            <use href="#spin" fill="red" x="40" transform="scale(0.6)"/>
            <use href="#lol" fill="red" x="40" transform="scale()"/>

        </g>
        <g id="yerba">
            <path d="M512.61 766.47c-191.73 0-382.35 23.79-446.14-114.4-21.3-46.15 156.87 53.84 302.12 65.37C269.82 673.22 142.26 612.89 111 502.09 97.46 454 325 655.19 382.14 669.37c-42.61-38.46-223.06-198.32-168.49-294.18 25.18-44.22 184 242.27 184 242.27s-134.75-248.84-58.1-324.95c31-30.76 67.78 276.88 141.38 344.17 0 0-35.83-382.63 30-380.71s51.32 244.19 32 384.55C630 519.4 645.53 315.59 672.64 288.67s69.72 153.82-63.91 332.64c77.47-13.46 197.54-299.95 203.35-251.88 19 157.26-166.55 294.18-166.55 294.18 120.07-38.46 244-188.43 269.19-165.36s-112.33 186.51-292.43 225c211.1-1.92 338.27-127.59 337-84.6-3.78 125.01-254.95 127.82-446.68 127.82z" fill="blue" /></g>
        <g id="circulosp">
            <circle  r="10" fill="pink" cx="100" transform="rotate(22.5)"/>
            <circle  r="10" fill="pink" cx="100" transform="rotate(67.5)"/>
            <circle  r="10" fill="pink" cx="100" transform="rotate(112.5)"/>
            <circle  r="10" fill="pink" cx="100" transform="rotate(157.5)"/>
            <circle  r="10" fill="pink" cx="100" transform="rotate(202.5)"/>
            <circle  r="10" fill="pink" cx="100" transform="rotate(247.5)"/>
            <circle  r="10" fill="pink" cx="100" transform="rotate(292.5)"/>
            <circle  r="10" fill="pink" cx="100" transform="rotate(337.5)"/>


        </g>
        <path id="triangulo4" d="M 0 0 C 0 -85.6667 157 -320 0 -257 C 0 -171.3333 0 -85.6667 0 0 C 0 -85.6667 -157 -320 0 -257" fill="black" />

        <g id="cruz">
            <use xlink:href="#triangulo4"  />
            <use xlink:href="#triangulo4" transform="rotate(90)" />
            <use xlink:href="#triangulo4" transform="rotate(180)"/>
            <use xlink:href="#triangulo4"  transform="rotate(270)"/>
        </g>
        <g id="hola">
            <path d="M705.024 674.304c55.808 24.064 103.936 54.272 138.24 86.016-39.936-2.048-119.296-9.216-171.52-32.768-20.992-12.288-53.76-32.256-70.144-46.592-3.072-3.072-5.632-6.144-8.704-8.704-0.512-0.512-1.024-1.024-1.024-1.536-2.56-4.096-4.608-7.68-6.144-10.752 25.6-2.048 78.336-3.584 119.296 14.336zM619.52 735.232c18.944 31.232 32.768 77.312 40.448 107.008-22.016-22.016-44.032-51.2-63.488-84.48-14.848-24.576-20.992-56.832-23.552-76.288 0.512 0 0.512 0.512 1.024 0.512 1.024 0.512 3.072 2.048 4.608 3.584 2.56 3.072 5.632 6.144 9.216 9.216 9.216 10.24 21.504 26.112 31.744 40.448zM544.256 692.736c0.512 0 0.512-0.512 1.024-0.512-2.56 19.456-9.216 51.712-23.552 76.288-19.968 33.792-41.984 62.976-63.488 84.992 7.68-30.208 20.992-76.288 40.448-107.52 15.872-23.04 38.4-49.664 45.568-53.248z" fill="#B5D577" />
        </g>
        <g id="floor">
            <path d="M583.168 489.984c7.168 39.424-7.68 81.408-45.568 98.816-104.448 48.64-160.768-134.656-49.152-155.136 35.84 0.512 73.216 6.656 88.576 37.888 0.512 1.024 1.024 2.56 1.536 3.584 2.56 4.608 4.096 9.728 4.608 14.848zM855.04 179.2c6.656 22.016 9.216 56.832-1.536 77.824-8.704 17.408-25.088 32.256-38.912 45.568C750.592 365.056 669.184 404.48 593.92 450.56c-13.824-19.968-35.84-31.744-60.928-37.376 2.56-41.472 5.12-83.456 7.68-124.928 3.072-41.984 2.048-87.04 12.8-128 9.216-34.816 32.256-69.632 64.512-87.552 39.936-22.528 88.576-2.048 95.232 45.056-1.024 0.512-1.536 1.024-2.048 2.048-23.04 27.136-40.96 56.832-57.344 88.576-15.36 29.696-31.744 58.88-30.72 93.184 0.512 16.384 25.6 16.384 25.088 0-0.512-32.256 16.896-60.416 31.232-88.064 13.312-25.6 28.16-50.176 46.592-72.704 1.024 0 2.048-0.512 3.072-1.024C774.656 122.88 838.656 122.88 855.04 179.2z" fill="red" />
            <path d="M520.704 219.136c-0.512 3.072-0.512 6.144-0.512 9.216-4.608 60.416-8.704 120.832-12.288 181.248-6.144-0.512-12.288-1.024-18.944-1.024-1.536 0-3.072 0.512-4.096 0.512h-3.072c-28.16 5.12-50.176 22.016-64.512 44.032-31.232-11.264-60.928-25.6-88.576-43.52-25.088-15.872-48.128-36.352-74.752-49.152-17.92-8.704-39.424-15.36-61.952-19.456-14.848-30.72-24.064-64-24.576-98.304-0.512-15.872-1.536-37.376 5.12-52.224 8.704-19.456 30.208-18.944 48.128-18.432 78.336 1.024 109.056 92.16 132.096 153.6 5.632 14.848 30.208 8.704 24.576-6.656-15.872-42.496-31.744-91.648-62.976-124.928-6.656-7.168-13.312-13.824-20.48-19.456 0.512-1.536 1.024-3.584 1.024-5.12-2.56-34.816 8.192-57.344 33.28-80.896 24.064-22.528 66.048-22.016 96.256-12.288 58.88 18.944 76.8 89.088 95.232 140.288 0.512 1.024 0.512 2.048 1.024 2.56zM406.016 543.232c2.048 5.632 4.096 11.264 6.656 16.896-52.224 26.112-99.328 60.416-144.896 96.256-22.528 17.408-45.056 34.816-64.512 54.784-1.536-0.512-3.072-1.024-5.12-1.024-32.768 0-70.144 2.56-98.304-16.384-28.16-18.432-44.544-56.32-39.424-89.6 6.656-40.96 51.712-41.472 84.48-40.96 33.792 0.512 67.584 1.536 100.864 2.048 16.384 0.512 16.384-25.088 0-25.088-47.104-1.024-98.304-7.68-144.896 0-2.048 0.512-4.608 1.024-6.656 1.536-1.536-2.048-4.096-4.096-7.68-4.608-51.712-8.704-61.44-87.04-42.496-125.952 23.04-47.104 76.8-48.128 122.88-44.544 51.2 3.584 86.016 23.04 126.464 51.712 34.816 24.576 73.216 44.032 112.64 58.88-6.144 19.968-7.168 43.52 0 66.048zM497.152 622.08c-1.536 64.512-2.56 129.536-4.096 194.048-0.512 18.432-0.512 37.888 1.024 56.832-1.024 0.512-2.048 1.536-3.072 2.56-24.576 29.696-113.152 102.912-128.512 30.72-10.752-49.664 16.896-95.232 50.176-129.024 11.264-11.776-6.144-29.184-17.92-17.92-26.624 26.624-50.176 62.976-57.856 100.864-1.024 0.512-1.536 1.024-2.56 1.536-30.72 23.04-83.456 23.552-118.784 10.24-58.368-22.016-34.816-96.256-5.632-132.608 28.16-35.328 69.632-62.464 105.472-89.088 34.816-26.112 71.168-50.176 110.08-69.632 17.408 24.064 42.496 39.424 71.68 41.472z" fill="red" />
            <path d="M1016.832 426.496c4.608 36.864-26.624 64.512-58.88 79.36 16.384 8.704 32.256 19.968 40.448 35.328 10.24 20.48 9.216 53.248 7.168 75.776-5.12 48.64-48.64 75.264-94.72 82.432-30.208 4.608-62.976 2.56-94.72-4.096 50.688 52.736 89.088 125.952 17.408 180.224-21.504 16.384-52.736 14.336-78.336 2.56-3.584 40.96-36.352 90.112-71.68 107.52-22.528 11.264-54.784 9.216-79.36 7.168-23.552-2.048-47.616-8.704-66.56-23.552-21.504-16.896-32.768-39.936-38.4-65.024-37.376 37.888-119.296 94.208-151.552 34.304-8.192-15.36-12.288-31.232-12.8-47.104-37.376 19.456-91.136 17.92-129.024 3.072-45.056-17.92-58.88-67.072-46.592-111.104 5.12-18.432 13.312-34.816 24.064-49.152-36.864-0.512-74.752-2.048-104.448-26.112-30.208-24.576-46.592-64-43.52-102.4 1.536-22.528 12.288-39.424 28.16-51.2C25.6 537.6 8.704 487.936 9.728 449.024c1.024-46.592 29.184-90.112 74.752-103.936 23.552-7.168 51.2-9.216 78.848-7.168-25.088-62.464-48.128-180.736 35.84-189.952 27.136-3.072 49.664 1.024 70.144 10.752 0-35.328 11.776-58.88 38.4-84.992 28.672-29.184 64-30.72 102.912-25.6 65.536 8.704 95.232 62.464 117.248 118.272 5.632-27.136 14.848-52.736 33.792-75.776 25.6-32.256 63.488-58.368 106.496-51.2 37.376 6.656 62.464 35.84 69.632 71.68 44.032-12.8 94.208-9.728 125.44 28.672 25.6 31.232 32.256 94.72 12.8 130.56-14.336 26.112-37.376 49.152-61.952 69.632 78.336-4.096 190.464-10.24 202.752 86.528z m-117.248 66.56c34.816-2.048 101.888-23.552 91.136-70.144-10.24-42.496-50.688-56.832-90.112-58.368-38.912-1.536-77.824 1.024-116.736 1.536-1.536 0-3.072-0.512-4.608-0.512l-19.968 13.824c-49.664 34.304-103.424 62.976-154.624 94.72 2.048 6.144 3.072 12.288 4.096 19.456 2.048 17.408 0.512 34.816-4.096 50.688 34.816 22.016 69.632 43.52 101.888 69.12 38.4 29.696 74.752 50.688 123.392 58.88 23.04 4.096 47.616 6.144 70.656 3.584 25.088-2.56 64-16.896 75.264-41.472 8.192-17.408 4.608-44.544 3.072-62.976-3.072-28.672-30.208-41.472-53.76-52.736-1.024-0.512-2.048-1.024-2.56-1.536-20.48 3.072-41.472 2.56-61.44 3.072-28.672 1.024-57.856 1.536-86.528 2.56-16.384 0.512-16.384-24.576 0-25.088 41.472-2.048 83.456-2.048 124.928-4.608z m-46.08-236.032c10.24-20.992 8.192-55.808 1.536-77.824-16.384-56.32-80.384-56.32-125.44-38.912-1.024 0.512-2.048 0.512-3.072 1.024-18.432 22.016-33.28 47.104-46.592 72.704-14.336 27.648-32.256 55.808-31.232 88.064 0.512 16.384-25.088 16.384-25.088 0-0.512-34.304 15.36-63.488 30.72-93.184 16.384-31.232 34.304-61.44 57.344-88.576 0.512-1.024 1.536-1.536 2.048-2.048-6.144-46.592-54.784-67.584-95.232-45.056-31.744 17.92-54.784 52.736-64.512 87.552-10.752 40.448-9.728 86.016-12.8 128-3.072 41.472-5.632 83.456-7.68 124.928 25.088 5.632 47.104 17.408 60.928 37.376 75.264-46.08 156.672-86.016 220.672-147.968 13.312-13.312 29.696-28.672 38.4-46.08z m-29.696 593.408c62.464-56.832-12.8-129.536-58.88-167.424-1.536-1.536-3.072-3.072-3.584-4.608-6.656-3.072-13.312-6.144-19.456-9.216-26.112-14.336-48.64-35.84-72.704-53.248-24.064-16.896-48.64-32.768-73.728-48.128-12.288 22.528-32.256 39.936-58.88 49.152-4.608 1.536-9.728 3.072-14.336 4.096l-3.072 141.824c-1.024 46.08-8.704 98.816 5.632 143.872 16.896 54.784 67.584 65.536 119.296 62.464 26.112-1.536 39.936-12.288 55.808-31.232 16.384-19.968 31.232-43.008 29.696-70.144 0-1.536 0-2.56 0.512-4.096-1.024-1.024-2.048-1.536-2.56-2.56-30.208-28.672-57.856-64.512-66.56-105.984-3.584-15.872 20.992-22.528 24.576-6.656 6.656 32.256 25.088 57.856 47.104 81.408 21.504 24.064 61.44 47.104 91.136 20.48z m-285.696-261.12c37.888-17.408 52.736-59.392 45.568-98.816-1.024-5.12-2.56-10.24-4.096-14.336-0.512-1.024-1.024-2.56-1.536-3.584-15.36-31.232-52.736-37.376-88.576-37.888-112.128 19.968-56.32 203.264 48.64 154.624z m-17.92-360.96c0.512-3.072 0.512-6.144 0.512-9.216-0.512-0.512-1.024-1.536-1.024-2.56-18.944-51.2-36.352-121.856-95.232-140.288-30.208-9.728-72.192-10.24-96.256 12.288-25.088 23.552-35.84 46.08-33.28 80.896 0 2.048 0 4.096-1.024 5.12 7.168 5.632 13.824 12.288 20.48 19.456 31.232 33.792 47.104 82.944 62.976 124.928 5.632 15.36-18.432 22.016-24.576 6.656-23.04-61.44-53.76-152.064-132.096-153.6-17.92 0-39.424-0.512-48.128 18.432-6.656 14.848-5.632 36.352-5.12 52.224 1.024 34.304 9.728 67.584 24.576 98.304 22.528 4.096 43.52 10.24 61.952 19.456 27.136 12.8 49.664 33.28 74.752 49.152 28.16 17.408 57.856 31.744 88.576 43.52 13.824-22.016 36.352-38.912 64.512-44.032h3.072c1.536-0.512 2.56-0.512 4.096-0.512 6.144 0 12.8 0.512 18.944 1.024 3.584-60.416 7.68-120.832 12.288-181.248z m-27.136 587.776c1.536-64.512 2.56-129.536 4.096-194.048-28.672-2.048-54.272-17.408-71.68-40.96-38.912 19.456-75.264 43.52-110.08 69.632-35.84 26.624-77.312 53.76-105.472 89.088-29.184 36.352-52.736 110.08 5.632 132.608 35.328 13.312 88.064 12.8 118.784-10.24 1.024-0.512 1.536-1.024 2.56-1.536 7.68-37.888 31.744-74.24 57.856-100.864 11.776-11.776 29.184 6.144 17.92 17.92-33.792 33.792-60.928 79.36-50.176 129.024 15.36 72.192 103.936-1.536 128.512-30.72 1.024-1.024 2.048-2.048 3.072-2.56-2.048-19.456-1.536-38.912-1.024-57.344z m-80.896-256.512c-2.56-5.12-4.608-10.752-6.656-16.896-7.168-22.528-6.144-45.568 1.024-67.072-39.936-15.36-77.824-34.816-112.64-58.88-40.448-28.672-75.776-48.128-126.464-51.712-46.08-3.072-99.84-2.56-122.88 44.544-19.456 38.912-9.216 117.248 42.496 125.952 3.584 0.512 6.144 2.56 7.68 4.608 2.048-0.512 4.608-1.024 6.656-1.536 46.592-7.68 97.792-1.024 144.896 0 16.384 0.512 16.384 25.6 0 25.088-33.792-0.512-67.584-1.536-100.864-2.048-32.768-0.512-78.336 0-84.48 40.96-5.12 33.28 11.264 70.656 39.424 89.6 28.16 18.944 65.536 15.872 98.304 16.384 2.048 0 3.584 0.512 5.12 1.024 19.456-19.968 42.496-37.376 64.512-54.784 44.544-34.816 91.648-69.12 143.872-95.232z" fill="black" /><path d="M990.72 422.912c10.752 46.592-56.32 68.096-91.136 70.144-41.472 2.56-82.944 2.048-124.928 3.584-16.384 0.512-16.384 25.6 0 25.088 28.672-1.024 57.856-1.536 86.528-2.56 20.48-0.512 41.472 0.512 61.44-3.072 1.024 0.512 1.536 1.024 2.56 1.536 23.552 11.264 50.688 24.064 53.76 52.736 2.048 18.432 5.12 45.568-3.072 62.976-11.264 24.576-50.688 38.912-75.264 41.472-23.04 2.56-47.616 0.512-70.656-3.584-48.64-8.704-84.992-29.184-123.392-58.88-32.256-25.088-67.072-47.104-101.888-69.12 4.608-15.872 6.144-33.28 4.096-50.688-1.024-7.168-2.56-13.312-4.096-19.456 51.712-31.744 104.96-60.416 154.624-94.72 6.656-4.608 12.8-9.216 19.968-13.824 1.536 0.512 3.072 0.512 4.608 0.512 38.912-0.512 77.824-3.072 116.736-1.536 39.424 2.56 79.872 16.896 90.112 59.392zM764.928 683.008c46.08 37.376 121.856 110.592 58.88 167.424-29.696 26.624-69.632 3.584-91.648-20.48-22.016-23.552-39.936-49.152-47.104-81.408-3.584-15.872-27.648-9.216-24.576 6.656 9.216 41.472 36.352 77.312 66.56 105.984 1.024 1.024 2.048 1.536 2.56 2.56-0.512 1.024-0.512 2.56-0.512 4.096 1.536 27.136-13.312 50.176-29.696 70.144-15.872 19.456-29.696 29.696-55.808 31.232-51.2 3.072-101.888-7.68-119.296-62.464-13.824-45.056-6.144-97.792-5.632-143.872 1.024-47.616 2.048-94.72 3.072-141.824 4.608-1.024 9.728-2.048 14.336-4.096 26.624-9.216 46.592-27.136 58.88-49.152 24.576 15.36 49.664 31.232 73.728 48.128 24.576 17.408 46.592 38.912 72.704 53.248 6.144 3.584 12.8 6.656 19.456 9.216 1.024 1.536 2.048 3.072 4.096 4.608z" fill="red" />

        </g>
        <g id="solete">
            <circle fill-rule="evenodd" clip-rule="evenodd" fill="#231F20" cx="32.003" cy="32.005" r="16.001"/>
            <path fill-rule="evenodd" clip-rule="evenodd" fill="#231F20" d="M12.001,31.997c0-2.211-1.789-4-4-4H4c-2.211,0-4,1.789-4,4
		s1.789,4,4,4h4C10.212,35.997,12.001,34.208,12.001,31.997z"/>
            <path fill-rule="evenodd" clip-rule="evenodd" fill="#231F20" d="M12.204,46.139l-2.832,2.833c-1.563,1.562-1.563,4.094,0,5.656
		c1.562,1.562,4.094,1.562,5.657,0l2.833-2.832c1.562-1.562,1.562-4.095,0-5.657C16.298,44.576,13.767,44.576,12.204,46.139z"/>
            <path fill-rule="evenodd" clip-rule="evenodd" fill="#231F20" d="M32.003,51.999c-2.211,0-4,1.789-4,4V60c0,2.211,1.789,4,4,4
		s4-1.789,4-4l-0.004-4.001C36.003,53.788,34.21,51.999,32.003,51.999z"/>
            <path fill-rule="evenodd" clip-rule="evenodd" fill="#231F20" d="M51.798,46.143c-1.559-1.566-4.091-1.566-5.653-0.004
		s-1.562,4.095,0,5.657l2.829,2.828c1.562,1.57,4.094,1.562,5.656,0s1.566-4.09,0-5.656L51.798,46.143z"/>
            <path fill-rule="evenodd" clip-rule="evenodd" fill="#231F20" d="M60.006,27.997l-4.009,0.008
		c-2.203-0.008-3.992,1.781-3.992,3.992c-0.008,2.211,1.789,4,3.992,4h4.001c2.219,0.008,4-1.789,4-4
		C64.002,29.79,62.217,27.997,60.006,27.997z"/>
            <path fill-rule="evenodd" clip-rule="evenodd" fill="#231F20" d="M51.798,17.859l2.828-2.829c1.574-1.566,1.562-4.094,0-5.657
		c-1.559-1.567-4.09-1.567-5.652-0.004l-2.829,2.836c-1.562,1.555-1.562,4.086,0,5.649C47.699,19.426,50.239,19.418,51.798,17.859z"
            />
            <path fill-rule="evenodd" clip-rule="evenodd" fill="#231F20" d="M32.003,11.995c2.207,0.016,4-1.789,4-3.992v-4
		c0-2.219-1.789-4-4-4c-2.211-0.008-4,1.781-4,3.993l0.008,4.008C28.003,10.206,29.792,11.995,32.003,11.995z"/>
            <path fill-rule="evenodd" clip-rule="evenodd" fill="#231F20" d="M12.212,17.855c1.555,1.562,4.079,1.562,5.646-0.004
		c1.574-1.551,1.566-4.09,0.008-5.649l-2.829-2.828c-1.57-1.571-4.094-1.559-5.657,0c-1.575,1.559-1.575,4.09-0.012,5.653
		L12.212,17.855z"/>
        </g>

    </defs>
    <circle r="205" fill="yellow" stroke="black" stroke-width="1"/>

    <circle r="200" fill="orange" stroke="black" stroke-width="1"/>

    <!-- Triangulo -->
    <use xlink:href="#triangulo3" y="-38" transform="rotate(22.5) scale(4)"/>
    <use xlink:href="#triangulo3" y="-38" transform="rotate(67.5) scale(4)"/>
    <use xlink:href="#triangulo3" y="-38" transform="rotate(22.5) scale(4)"/>
    <use xlink:href="#triangulo3" y="-38" transform="rotate(112.5) scale(4)"/>
    <use xlink:href="#triangulo3" y="-38" transform="rotate(157.5) scale(4)"/>
    <use xlink:href="#triangulo3" y="-38" transform="rotate(202.5) scale(4)"/>
    <use xlink:href="#triangulo3" y="-38" transform="rotate(247.5) scale(4)"/>
    <use xlink:href="#triangulo3" y="-38" transform="rotate(292.5) scale(4)"/>
    <use xlink:href="#triangulo3" y="-38" transform="rotate(337.5) scale(4)"/>

    <use xlink:href="#circulosp" stroke="black" transform="scale(1.8) rotate(22.5)"></use>
    <use xlink:href="#circulosp" stroke="black" transform="scale(1.8) rotate(45)"></use>
    <use xlink:href="#circulosp" stroke="black" transform="scale(1.8) rotate(11.25)"></use>
    <use xlink:href="#circulosp" stroke="black" transform="scale(1.8) rotate(-11.5)"></use>





    <circle r="180" fill="url(#gradiente)"/>
    <use xlink:href="#hexagono" x="-37" y="-36.5" transform="scale(4)"/>
    <use xlink:href="#hexagono2" x="-37" y="-36.5" transform="scale(4.5) rotate(22.5)"/>


    <circle r="115" fill="url(#gradiente)"/>
    <use xlink:href="#circulosp" stroke="black" transform="scale(1.5)"></use>
    <use xlink:href="#circulosp" stroke="black" transform="scale(1.4)"></use>
    <use xlink:href="#circulosp"  stroke="black" transform="scale(1.3)"></use>
    <use xlink:href="#circulosp"  stroke="black" transform="scale(1.2)"></use>
    <use xlink:href="#circulosp"  stroke="black" transform="scale(1.1)"></use>
    <use xlink:href="#circulosp" stroke="black"  ></use>

    <!-- Grupo para todos los elementos use -->


    <use xlink:href="#figura" y="80" />
    <use xlink:href="#figura" y="80" transform="rotate(180)"/>
    <use xlink:href="#figura" y="80" transform="rotate(90)"/>
    <use xlink:href="#figura" y="80" transform="rotate(270)"/>

    <use xlink:href="#figura" y="80" transform="rotate(225)"/>
    <use xlink:href="#figura" y="80" transform="rotate(135)"/>
    <use xlink:href="#figura" y="80" transform="rotate(45)"/>
    <use xlink:href="#figura" y="80" transform="rotate(315)"/>

<circle r="10" fill="pink"/>

    <use xlink:href="#hexagono" x="-37"  y="-36.5" transform="scale(2)"/>
    <use xlink:href="#hexagono2" x="-37" y="-36.5" transform="scale(1.65) rotate(18)"/>
    <use xlink:href="#hexagono" x="-37" y="-36.5" transform="scale(1.37)"/>
    <use xlink:href="#hexagono2" x="-37" y="-36.5" transform="scale(1.13) rotate(18)"/>
    <use xlink:href="#hexagono" x="-37" y="-36.5" transform="scale(0.93)"/>
    <use xlink:href="#hexagono" x="-37" y="-36.5" transform="scale(0.2) rotate(18)"/>

    <use xlink:href="#hola" transform="scale(0.5)"/>
    <use xlink:href="#cruz" x="4550" transform="scale(0.025)" />
    <use xlink:href="#cruz" x="4550" transform="scale(0.025) rotate(45)" />
    <use xlink:href="#cruz" x="4550" transform="scale(0.025) rotate(90)" />
    <use xlink:href="#cruz" x="4550" transform="scale(0.025) rotate(135)" />
    <use xlink:href="#cruz" x="4550" transform="scale(0.025) rotate(180)" />
    <use xlink:href="#cruz" x="4550" transform="scale(0.025) rotate(225)" />
    <use xlink:href="#cruz" x="4550" transform="scale(0.025) rotate(270)" />
    <use xlink:href="#cruz" x="4550" transform="scale(0.025) rotate(315)" />

<use xlink:href="#Icons" x="-25" y="-80" transform="scale(0.35)"/>
    <use xlink:href="#Icons" x="-25" y="-80" transform="scale(0.35) rotate(90)"/>
    <use xlink:href="#Icons" x="-25" y="-80" transform="scale(0.35) rotate(180)"/>
    <use xlink:href="#Icons" x="-25" y="-80" transform="scale(0.35) rotate(270)"/>

    <use xlink:href="#cruz" transform="scale(0.02)" />
    <use xlink:href="#cruz" x="9350" transform="scale(0.02)" />
    <use xlink:href="#cruz" x="9350" transform="scale(0.02)rotate(45)" />
    <use xlink:href="#cruz" x="9350" transform="scale(0.02)rotate(90)" />
    <use xlink:href="#cruz" x="9350" transform="scale(0.02)rotate(135)" />
    <use xlink:href="#cruz" x="9350" transform="scale(0.02)rotate(180)" />
    <use xlink:href="#cruz" x="9350" transform="scale(0.02)rotate(225)" />
    <use xlink:href="#cruz" x="9350" transform="scale(0.02)rotate(270)" />
    <use xlink:href="#cruz" x="9350" transform="scale(0.02)rotate(315)" />

    <use xlink:href="#floor" x="-500" y="-19350" transform="scale(0.01) rotate(11.25)" />
    <use xlink:href="#floor" x="-500" y="-19350" transform="scale(0.01) rotate(22.5)" />
    <use xlink:href="#floor" x="-500" y="-19350" transform="scale(0.01) rotate(33.75)" />

    <use xlink:href="#floor" x="-500" y="-19350" transform="scale(0.01) rotate(56.25)" />
    <use xlink:href="#floor" x="-500" y="-19350" transform="scale(0.01) rotate(67.5)" />
    <use xlink:href="#floor" x="-500" y="-19350" transform="scale(0.01) rotate(78.75)" />

    <use xlink:href="#floor" x="-500" y="-19350" transform="scale(0.01) rotate(101.25)" />
    <use xlink:href="#floor" x="-500" y="-19350" transform="scale(0.01) rotate(112.5)" />
    <use xlink:href="#floor" x="-500" y="-19350" transform="scale(0.01) rotate(123.75)" />

    <use xlink:href="#floor" x="-500" y="-19350" transform="scale(0.01) rotate(146.25)" />
    <use xlink:href="#floor" x="-500" y="-19350" transform="scale(0.01) rotate(157.5)" />
    <use xlink:href="#floor" x="-500" y="-19350" transform="scale(0.01) rotate(168.75)" />

    <use xlink:href="#floor" x="-500" y="-19350" transform="scale(0.01) rotate(191.25)" />
    <use xlink:href="#floor" x="-500" y="-19350" transform="scale(0.01) rotate(202.5)" />
    <use xlink:href="#floor" x="-500" y="-19350" transform="scale(0.01) rotate(213.75)" />

    <use xlink:href="#floor" x="-500" y="-19350" transform="scale(0.01) rotate(236)" />
    <use xlink:href="#floor" x="-500" y="-19350" transform="scale(0.01) rotate(247.25)" />
    <use xlink:href="#floor" x="-500" y="-19350" transform="scale(0.01) rotate(258.5)" />

    <use xlink:href="#floor" x="-500" y="-19350" transform="scale(0.01) rotate(281)" />
    <use xlink:href="#floor" x="-500" y="-19350" transform="scale(0.01) rotate(292.25)" />
    <use xlink:href="#floor" x="-500" y="-19350" transform="scale(0.01) rotate(303.5)" />

    <use xlink:href="#floor" x="-500" y="-19350" transform="scale(0.01) rotate(326)" />
    <use xlink:href="#floor" x="-500" y="-19350" transform="scale(0.01) rotate(337.25)" />
    <use xlink:href="#floor" x="-500" y="-19350" transform="scale(0.01) rotate(348.5)"/>

<use xlink:href="#yerba" x="100" transform="scale(3)" fill="blue" />
</svg>
