<!--TRIANGLES FINAL I MITJANCERS -->
<svg xmlns="http://www.w3.org/2000/svg" xmlns:xlink="http://www.w3.org/1999/xlink"
     width="500" height="560"
     viewBox="-300 -200 560 500">
    <defs>
        <!-- ESTIL PER MODIFICAR ELS COLORS -->
        <style>
            :root {
            --black-color: black;
            <!-- Poner todos los colores con variables -->
            }
        </style>

        <!-- GRADIENTS -->

        <linearGradient id="gradiente-azul" x2="100%" >
            <stop offset="0%" style="stop-color: #0050FF;">
                <animate attributeName="stop-color" dur="5s" repeatCount="indefinite" values="#0050FF;#FFC300;#0050FF;" />
            </stop>
            <stop offset="100%" style="stop-color: #FFC300;">
                <animate attributeName="stop-color" dur="5s" repeatCount="indefinite" values="#FFC300;#0050FF;#FFC300;" />
            </stop>
        </linearGradient>
        <linearGradient id="gradient" x1="0%" y1="0%" x2="100%" y2="0%" spreadMethod="pad">
            <stop offset="0%" stop-color="green" stop-opacity="1" />
            <stop offset="50%" stop-color="yellow" stop-opacity="1" />
            <stop offset="100%" stop-color="red" stop-opacity="1" />
        </linearGradient>
        <radialGradient id="gradiente9">
            <stop stop-color="yellow" offset="80%"/>
            <stop stop-color="green" offset="90%"/>
            <stop stop-color="black" offset="100%"/>
        </radialGradient>

        <!-- GRUPS I PATHS DE LES DIFERENTS FIGURES UTILITZADES -->

        <!--FULLA -->
        <path id="canamo" d="M936.96 556.544c-10.24-17.92-37.888-21.504-82.944-10.24-39.424 9.728-88.064 30.208-136.192 57.344-61.44 34.816-118.272 78.848-143.36 115.2 0-39.424 0.512-78.336 0.512-117.76 1.024 1.536 2.56 3.584 4.096 4.608 5.632 5.12 12.8 7.168 20.992 7.168 40.96 0 113.152-54.784 172.544-119.808 71.68-78.336 127.488-173.056 95.232-202.752-32.256-29.696-121.856 34.304-193.536 112.128-37.376 40.96-68.096 82.944-86.528 119.296-5.632 10.752-9.728 20.48-12.8 29.696 0-36.864 0-73.216-0.512-110.08 37.376-14.848 56.832-113.664 56.832-211.968 0-105.984-23.04-214.016-66.56-214.016s-66.56 107.52-66.56 214.016c0 100.352 20.48 201.728 59.392 212.48 0 33.28 0 67.072 0.512 100.352-2.56-6.656-5.632-13.312-9.728-20.992-18.432-36.352-49.152-78.848-86.528-119.296-71.68-78.336-161.28-141.824-193.536-112.128-15.36 13.824-12.288 41.984 8.704 82.944 18.432 36.352 49.152 78.848 86.528 119.296 37.376 40.96 76.8 75.264 111.616 96.768 25.088 15.36 45.056 23.552 60.416 23.552 8.704 0 15.872-2.56 21.504-7.68l1.024-1.024c0 43.52 0 87.552-0.512 131.072-16.384-39.424-81.408-92.16-152.576-132.608-48.128-27.136-96.256-47.616-136.192-57.344-45.056-11.264-72.704-7.68-82.944 10.24-21.504 37.888 60.928 111.104 153.088 163.328 48.128 27.136 96.256 47.616 136.192 57.344 16.896 4.096 31.744 6.144 44.032 6.144 18.944 0 31.744-5.12 38.4-15.872-0.512 77.312-1.536 154.624-2.56 231.424 0 10.752 16.896 10.752 16.896 0 1.024-74.24 2.048-148.48 2.56-222.72 7.168 4.608 16.896 7.168 29.696 7.168 12.288 0 26.624-2.048 44.032-6.144 39.424-9.728 88.064-30.208 136.192-57.344 92.16-51.2 174.08-123.904 152.576-161.792z m-331.264-24.576c17.92-34.816 47.616-75.776 83.456-115.2 79.872-87.04 151.04-123.904 164.864-111.104 13.824 12.8-16.896 87.04-96.768 174.08-79.872 87.04-151.04 123.904-164.864 111.104-3.584-4.096-6.144-20.992 13.312-58.88z m-62.464 58.88c-4.096 4.096-20.992 4.608-57.344-17.92-33.28-20.48-71.168-53.76-107.52-93.184-35.84-39.424-65.536-80.384-83.456-115.2-19.456-37.888-17.408-54.784-12.8-58.88 2.048-1.536 4.608-2.56 8.192-2.56 24.064 0 87.04 37.888 156.672 113.664 36.352 39.424 66.048 80.384 83.456 115.2 19.456 37.888 17.408 54.784 12.8 58.88z m-3.072 165.888c-3.072 5.12-18.944 10.752-60.416 0.512-37.888-9.216-84.48-29.184-131.072-55.296-102.912-58.368-154.624-119.296-145.408-135.68 1.536-3.072 8.192-6.144 21.504-6.144 9.216 0 22.016 1.536 38.912 5.632 37.888 9.216 84.48 29.184 131.072 55.296 102.912 58.368 154.624 119.296 145.408 135.68zM518.656 230.4c0-118.272 27.648-193.536 46.592-193.536s46.592 75.264 46.592 193.536-28.16 193.024-46.592 193.024-46.592-75.264-46.592-193.024z m254.976 471.552c-46.592 26.112-93.184 46.08-131.072 55.296-41.472 10.24-57.344 4.608-60.416-0.512-9.216-16.384 43.008-77.312 145.408-135.68 46.592-26.112 93.184-46.08 131.072-55.296 16.896-4.096 29.696-5.632 38.912-5.632 13.312 0 19.968 3.072 21.504 6.144 9.728 16.384-42.496 77.312-145.408 135.68z" fill="#9ACD32" />

        <!-- SIMBOL GIT -->
        <path id="git" d="M24.92 12.183c0-1.586-.604-2.864-1.585-3.83.172-.547.398-1.763-.229-3.321 0 0-1.114-.348-3.628 1.315a12.695 12.695 0 0 0-3.081-.366c-1.154 0-2.322.143-3.409.44-2.596-1.747-3.74-1.391-3.74-1.391-.748 1.847-.287 3.215-.145 3.554-.883.936-1.414 2.133-1.414 3.594 0 1.111.128 2.099.44 2.964l.325.732c.879 1.614 2.606 2.655 5.677 2.983-.434.289-.885.779-1.062 1.612-.594.28-2.475.966-3.603-.944 0 0-.633-1.148-1.842-1.235 0 0-1.174-.017-.08.722 0 0 .782.367 1.326 1.738 0 0 .705 2.342 4.114 1.593v2.417s-.076.857-.867 1.143c0 0-.469.312.034.497 0 0 2.205.174 2.205-1.604v-2.643s-.09-1.047.429-1.404v4.332s-.032 1.031-.576 1.421c0 0-.362.646.433.468 0 0 1.517-.211 1.584-1.967l.035-4.383h.363l.033 4.383c.076 1.748 1.59 1.967 1.59 1.967.793.179.429-.468.429-.468-.54-.389-.579-1.421-.579-1.421v-4.297c.52.402.436 1.369.436 1.369v2.643c0 1.777 2.2 1.604 2.2 1.604.505-.186.036-.498.036-.498-.793-.286-.867-1.143-.867-1.143v-3.461c0-1.346-.574-2.056-1.137-2.435 3.277-.318 4.845-1.368 5.572-2.99-.015.027.26-.726.26-.726.25-.859.325-1.855.325-2.963h-.002z" fill="red"/>

        <!--CORET -->
        <path id="coret" d="M 0 -2 a 2 2 0 0 1 4 0 c 0 3 -4 5 -4 6 c 0 -1 -4 -3 -4 -6 a 2 2 0 0 1 4 0" fill="#d81159" stroke="black" stroke-width="0.5"/>

        <!--MIRAR QUE ES -->
        <path id="koko" d="M 0 -6.5 A 1 1 0 0 0 -3.75 0 A 1 1 0 0 1 -7.5 6.5 A 1 1 0 0 0 0 6.5 A 1 1 0 0 1 7.5 6.5 A 1 1 0 0 0 3.75 0 A 1 1 0 0 1 0 -6.5 Z" transform="scale(0.6)"/>
        <path id="koko2" d="M 0 -6.5 A 1 1 0 0 0 -3.75 0 A 1 1 0 0 1 -7.5 6.5 A 1 1 0 0 0 0 6.5 A 1 1 0 0 1 7.5 6.5 A 1 1 0 0 0 3.75 0 A 1 1 0 0 1 0 -6.5 Z" transform="scale(0.3)"/>


        <path id="triangulo" d="M -10 0 L 10 0 L 0 -20 L -10 0" fill="#6B8E23" stroke="green" stroke-width="1"/>
        <path id="triangulo2" d="M -10 0 L 10 0 L 0 -20 L -10 0" fill="green" stroke="yellow" stroke-width="0.6"/>

        <!--TRIANGLES FINAL I MITJANCERS -->
        <path id="triangulo3" d="M -10 0 L 10 0 L 0 -20 L -10 0" fill="orange" />

        <!--TRIANGLES INTERIORS-->
        <path id="triangulo4" d="M -10 0 L 10 0 L 0 -20 L -10 0" fill="pink" stroke="black"/>

        <!--TRIANGLES INTERIORS-->
        <path id="triangulo5" d="M -10 0 L 10 0 L 0 -20 L -10 0" fill="red" stroke="black"/>

        <g id="baseElipse" stroke="black">
            <ellipse cx="0" cy="0" rx="200" ry="80" class="ellipse" fill="#66CDAA" />
            <ellipse cx="0" cy="0" rx="200" ry="80" class="ellipse" fill="#3a86ff" transform="rotate(45)"/>
            <ellipse cx="0" cy="0" rx="200" ry="80" class="ellipse" fill="#66CDAA" transform="rotate(90)"/>
            <ellipse cx="0" cy="0" rx="200" ry="80" class="ellipse" fill="#3a86ff" transform="rotate(135)"/>
        </g>
        <g id="Page1" stroke="none" stroke-width="1" fill="none" fill-rule="evenodd">
            <g id="Dribbble-Light-Preview" transform="translate(-380.000000, -4359.000000)" fill="#000000">
                <g id="icons" transform="translate(56.000000, 160.000000)">
                    <path d="M334,4215 C333.448,4215 333,4217.448 333,4218 C333,4218.552 333.448,4219 334,4219 C334.552,4219 335,4218.552 335,4218 C335,4217.448 334.552,4215 334,4215 M329.552,4213.175 C328.902,4213.175 327.273,4214.313 326.929,4214.657 C326.538,4215.047 326.538,4215.681 326.929,4216.071 C327.124,4216.266 327.38,4216.364 327.636,4216.364 C327.892,4216.364 328.148,4216.266 328.343,4216.071 C328.734,4215.681 330.148,4213.633 329.757,4213.243 C329.711,4213.196 329.641,4213.175 329.552,4213.175 M338.448,4213.175 C338.359,4213.175 338.289,4213.196 338.243,4213.243 C337.852,4213.633 339.266,4215.681 339.657,4216.071 C339.852,4216.266 340.108,4216.364 340.364,4216.364 C340.62,4216.364 340.876,4216.266 341.071,4216.071 C341.462,4215.681 341.462,4215.047 341.071,4214.657 C340.727,4214.313 339.098,4213.175 338.448,4213.175 M325,4208 C324.448,4208 324,4208.448 324,4209 C324,4209.552 324.448,4210 325,4210 C325.552,4210 328,4209.552 328,4209 C328,4208.448 325.552,4208 325,4208 M343,4208 C342.448,4208 340,4208.448 340,4209 C340,4209.552 342.448,4210 343,4210 C343.552,4210 344,4209.552 344,4209 C344,4208.448 343.552,4208 343,4208 M334,4205 C331.791,4205 330,4206.791 330,4209 C330,4211.209 331.791,4213 334,4213 C336.209,4213 338,4211.209 338,4209 C338,4206.791 336.209,4205 334,4205 M327.636,4201.636 C327.38,4201.636 327.124,4201.734 326.929,4201.929 C326.538,4202.319 326.538,4202.953 326.929,4203.343 C327.273,4203.687 328.902,4204.825 329.552,4204.825 C329.641,4204.825 329.711,4204.804 329.757,4204.757 C330.148,4204.367 328.734,4202.319 328.343,4201.929 C328.148,4201.734 327.892,4201.636 327.636,4201.636 M340.364,4201.636 C340.108,4201.636 339.852,4201.734 339.657,4201.929 C339.266,4202.319 337.852,4204.367 338.243,4204.757 C338.289,4204.804 338.359,4204.825 338.448,4204.825 C339.098,4204.825 340.727,4203.687 341.071,4203.343 C341.462,4202.953 341.462,4202.319 341.071,4201.929 C340.876,4201.734 340.62,4201.636 340.364,4201.636 M334,4199 C333.448,4199 333,4199.448 333,4200 C333,4200.552 333.448,4203 334,4203 C334.552,4203 335,4200.552 335,4200 C335,4199.448 334.552,4199 334,4199 M334,4207 C335.103,4207 336,4207.897 336,4209 C336,4210.103 335.103,4211 334,4211 C332.897,4211 332,4210.103 332,4209 C332,4207.897 332.897,4207 334,4207" id="brightness-[#862]">

                    </path>
                </g>
            </g>
        </g>
        <g id="baseElipsee" >
            <ellipse cx="0" cy="0" rx="200" ry="80" class="ellipse" fill="yellow" />
            <ellipse cx="0" cy="0" rx="200" ry="80" class="ellipse" fill="yellow" transform="rotate(45)"/>
            <ellipse cx="0" cy="0" rx="200" ry="80" class="ellipse" fill="yellow" transform="rotate(90)"/>
            <ellipse cx="0" cy="0" rx="200" ry="80" class="ellipse" fill="yellow" transform="rotate(135)"/>
        </g>
        <g id="baseElipse2" >
            <ellipse cx="0" cy="0" rx="200" ry="80" class="ellipse" fill="#8338ec" />
            <ellipse cx="0" cy="0" rx="200" ry="80" class="ellipse" fill="#d81159" transform="rotate(45)"/>
            <ellipse cx="0" cy="0" rx="200" ry="80" class="ellipse" fill="#8338ec" transform="rotate(90)"/>
            <ellipse cx="0" cy="0" rx="200" ry="80" class="ellipse" fill="#d81159" transform="rotate(135)"/>
        </g>

        <g id="puntas"  stroke="black" stroke-width="0.5">
            <!-- Triangulo -->
            <use xlink:href="#triangulo3" y="-38" transform="rotate(22.5) scale(3.5)"/>
            <use xlink:href="#triangulo3" y="-38" transform="rotate(67.5) scale(3.5)"/>
            <use xlink:href="#triangulo3" y="-38" transform="rotate(22.5) scale(3.5)"/>
            <use xlink:href="#triangulo3" y="-38" transform="rotate(112.5) scale(3.5)"/>
            <use xlink:href="#triangulo3" y="-38" transform="rotate(157.5) scale(3.5)"/>
            <use xlink:href="#triangulo3" y="-38" transform="rotate(202.5) scale(3.5)"/>
            <use xlink:href="#triangulo3" y="-38" transform="rotate(247.5) scale(3.5)"/>
            <use xlink:href="#triangulo3" y="-38" transform="rotate(292.5) scale(3.5)"/>
            <use xlink:href="#triangulo3" y="-38" transform="rotate(337.5) scale(3.5)"/>


        </g>
        <g id="puntas2"  >
            <!-- Triangulo -->
            <use xlink:href="#triangulo4" y="-38" transform="rotate(22.5) scale(4)"/>
            <use xlink:href="#triangulo4" y="-38" transform="rotate(67.5) scale(4)"/>
            <use xlink:href="#triangulo4" y="-38" transform="rotate(112.5) scale(4)"/>
            <use xlink:href="#triangulo4" y="-38" transform="rotate(157.5) scale(4)"/>
            <use xlink:href="#triangulo4" y="-38" transform="rotate(202.5) scale(4)"/>
            <use xlink:href="#triangulo4" y="-38" transform="rotate(247.5) scale(4)"/>
            <use xlink:href="#triangulo4" y="-38" transform="rotate(291.5) scale(4)"/>
            <use xlink:href="#triangulo4" y="-38" transform="rotate(337.5) scale(4)"/>


        </g>
        <g id="puntas3"  >
            <!-- Triangulo -->
            <use xlink:href="#triangulo5" y="-34" transform="rotate(22.5) scale(4)"/>
            <use xlink:href="#triangulo5" y="-34" transform="rotate(67.5) scale(4)"/>
            <use xlink:href="#triangulo5" y="-34" transform="rotate(22.5) scale(4)"/>
            <use xlink:href="#triangulo5" y="-34" transform="rotate(112.5) scale(4)"/>
            <use xlink:href="#triangulo5" y="-34" transform="rotate(157.5) scale(4)"/>
            <use xlink:href="#triangulo5" y="-34" transform="rotate(202.5) scale(4)"/>
            <use xlink:href="#triangulo5" y="-34" transform="rotate(247.5) scale(4)"/>
            <use xlink:href="#triangulo5" y="-34" transform="rotate(292.5) scale(4)"/>
            <use xlink:href="#triangulo5" y="-34" transform="rotate(337.5) scale(4)"/>


        </g>

        <path id="pp" d="M705.024 674.304c55.808 24.064 103.936 54.272 138.24 86.016-39.936-2.048-119.296-9.216-171.52-32.768-20.992-12.288-53.76-32.256-70.144-46.592-3.072-3.072-5.632-6.144-8.704-8.704-0.512-0.512-1.024-1.024-1.024-1.536-2.56-4.096-4.608-7.68-6.144-10.752 25.6-2.048 78.336-3.584 119.296 14.336zM619.52 735.232c18.944 31.232 32.768 77.312 40.448 107.008-22.016-22.016-44.032-51.2-63.488-84.48-14.848-24.576-20.992-56.832-23.552-76.288 0.512 0 0.512 0.512 1.024 0.512 1.024 0.512 3.072 2.048 4.608 3.584 2.56 3.072 5.632 6.144 9.216 9.216 9.216 10.24 21.504 26.112 31.744 40.448zM544.256 692.736c0.512 0 0.512-0.512 1.024-0.512-2.56 19.456-9.216 51.712-23.552 76.288-19.968 33.792-41.984 62.976-63.488 84.992 7.68-30.208 20.992-76.288 40.448-107.52 15.872-23.04 38.4-49.664 45.568-53.248z" fill="orange" />
        <path id="aa" d="M952.32 403.456l-13.312 17.92c-4.096 5.632-103.424 137.216-200.192 190.976l-1.024 0.512c-6.144 2.56-40.96 17.92-75.264 29.696 16.896 2.56 34.304 6.656 50.176 13.824 68.608 29.696 125.952 68.096 161.792 108.544l14.848 16.384h-22.528c-5.12 0-129.024-1.024-204.288-35.328l-1.024-0.512c-3.584-2.048-11.776-6.656-21.504-12.8 29.184 52.736 44.544 132.608 45.056 136.192l4.608 25.6-20.48-15.872c-39.424-30.72-71.168-76.8-91.136-110.592-7.68-12.8-13.312-27.136-17.408-40.96-1.024 93.696-1.024 186.88 0 280.576 0 10.752-16.384 10.752-16.384 0-1.024-80.896-1.024-161.28-0.512-242.176-2.048 4.608-4.096 8.704-6.656 13.312-19.968 33.28-51.712 79.872-91.136 110.592l-20.48 15.872 5.12-25.6c0.512-3.584 14.336-73.216 39.936-125.44-3.584 2.048-7.68 4.096-11.776 6.144-67.072 32.256-133.632 50.688-187.904 51.712l-22.528 0.512 14.848-16.896c3.584-4.096 84.992-96.768 160.256-131.584l1.024-0.512c6.144-2.048 25.088-8.704 45.056-14.336-39.936-11.264-89.6-33.28-97.28-36.352l-0.512-0.512c-96.768-53.76-196.096-185.344-200.192-190.976l-13.312-17.92 22.016 2.048c71.68 6.656 158.208 37.888 244.224 87.552 36.352 20.992 67.584 54.272 90.112 83.456-19.968-50.688-34.304-157.184-36.352-171.008v-1.024c-6.656-151.04 71.168-362.496 74.24-371.712l8.192-22.016 9.728 21.504c41.472 88.576 66.048 212.48 69.632 348.672 2.048 66.048-18.944 135.68-38.4 184.832 21.504-26.624 49.664-54.784 81.92-73.216 86.016-49.664 173.056-80.896 244.224-87.552l24.576-1.536z m-222.72 191.488c71.68-39.936 147.456-128 178.688-166.4-64 10.24-138.752 38.912-212.992 81.92-54.784 31.744-97.792 95.232-114.688 122.88 5.632 0.512 12.8 1.536 22.016 2.56 19.968 2.56 88.064-23.552 126.976-40.96z m113.152 165.376c-34.304-31.744-82.432-61.952-138.24-86.016-40.448-17.92-93.696-16.384-119.296-14.336 1.536 3.072 4.096 6.656 6.144 10.752 0.512 0.512 0.512 1.024 1.024 1.536l8.704 8.704c16.384 14.336 48.64 34.816 70.144 46.592 52.736 23.552 132.096 30.72 171.52 32.768z m-182.784 81.92c-7.68-30.208-21.504-76.288-40.448-107.008-10.24-14.336-22.528-30.208-32.256-40.448-3.584-3.072-6.656-6.144-9.216-9.216-2.048-1.536-3.584-3.072-4.608-3.584-0.512 0-0.512-0.512-1.024-0.512 2.56 19.456 9.216 51.712 23.552 76.288 19.968 33.28 41.984 62.464 64 84.48z m-97.792-229.888c17.92-36.864 62.976-138.24 60.416-229.888-3.584-122.368-24.064-233.984-57.856-317.952-19.968 59.904-70.144 221.696-65.024 339.968 5.632 41.984 23.552 155.136 42.496 180.224 8.704 12.288 15.36 21.504 19.968 27.648z m-16.896 79.872c-0.512 0-0.512 0.512-1.024 0.512-7.168 3.584-29.696 30.72-46.08 53.248-18.944 31.232-32.768 77.312-40.448 107.52 22.016-22.016 44.032-51.2 63.488-84.992 14.848-24.576 21.504-56.832 24.064-76.288z m-5.12-30.72c-3.584-0.512-7.68-1.536-12.288-2.56-14.336-2.56-65.536 12.8-95.232 23.04-52.224 24.064-109.056 79.872-136.704 108.544 46.592-5.12 100.864-22.016 155.136-48.128 39.936-19.456 73.728-60.416 89.088-80.896z m-31.744-25.6c9.216-1.024 16.384-2.048 22.016-2.56-16.896-27.648-59.904-91.136-114.688-122.88-74.24-43.008-148.992-71.68-212.992-81.92 31.232 38.4 107.008 126.464 178.688 166.4 38.912 17.408 107.008 43.52 126.976 40.96z" fill="black" />
        <path id="bb" d="M908.288 428.544c-31.232 38.4-107.008 126.464-178.688 166.4-38.4 16.896-107.008 43.008-126.976 40.96-9.216-1.024-16.384-2.048-22.016-2.56 16.896-27.648 59.904-91.136 114.688-122.88 74.752-43.008 148.992-71.68 212.992-81.92zM622.592 382.464c2.56 91.648-42.496 193.024-60.416 229.888-4.608-6.144-11.264-15.36-20.48-27.648-18.944-25.088-36.864-138.24-42.496-180.224-5.12-118.272 45.056-280.064 65.024-339.968 34.304 83.968 54.784 195.584 58.368 317.952zM527.872 658.944c4.608 1.024 9.216 1.536 12.288 2.56-15.36 20.48-49.152 61.952-89.088 80.896-54.784 26.112-109.056 43.008-155.136 48.128 27.648-28.672 84.992-84.48 136.704-108.544 29.696-10.24 80.896-25.6 95.232-23.04zM530.432 633.344c-5.632 0.512-12.8 1.536-22.016 2.56-19.968 2.56-88.064-23.552-126.976-40.96-71.68-39.936-147.456-128-178.688-166.4 64 10.24 138.752 38.912 212.992 81.92 54.784 31.744 97.792 95.232 114.688 122.88z" fill="orange" />


        <g id="hojita" >
            <use xlink:href="#pp" transform="scale(0.1) rotate(0)"/>
            <use xlink:href="#aa" transform="scale(0.1) rotate(0)"/>
            <use xlink:href="#bb" transform="scale(0.1) rotate(0)"/>
        </g>
        <g id="FLOORR">
            <path class="st0" d="M508.662,257.73c-7.712-8.374-17.751-14.315-28.908-18.126c-11.058-3.722-23.423-5.396-36.424-5.396
		c-7.068,0-14.405,0.466-21.848,1.486c1.86-10.683,2.881-21.742,2.881-32.891c0-19.799-3.15-40.064-10.316-60.231l-2.415-6.774
		l-7.158,0.555c-30.295,2.595-58.82,12.634-84.104,27.602c-12.364-26.769-39.46-59.864-64.36-73.894
		c-24.909,14.03-52.014,47.124-64.378,73.894c-25.283-14.968-53.808-25.007-84.103-27.602l-7.158-0.555l-2.416,6.774
		c-7.158,20.167-10.316,40.432-10.316,60.231c0,11.149,1.02,22.208,2.881,32.891c-7.443-1.02-14.78-1.486-21.84-1.486
		c-13.009,0-25.374,1.673-36.432,5.396c-11.157,3.811-21.196,9.752-28.908,18.126L0,261.346l1.117,4.84
		c13.565,58.918,41.632,98.688,78.898,122.854c37.265,24.248,82.806,32.898,131.595,32.898c12.92,0,26.117-0.652,39.403-1.771
		c0.343,0.082,4.612,0.058,4.995,0.082c0.358-0.024,4.636,0,4.978-0.082c13.286,1.118,26.484,1.771,39.403,1.771
		c48.798,0,94.33-8.65,131.604-32.898c37.257-24.166,65.324-63.937,78.888-122.854l1.118-4.84L508.662,257.73z M342.487,261.534
		c-0.93-27.325-5.754-55.025-14.96-80.211c21.75-13.189,45.908-22.296,71.372-25.554c4.742,15.8,6.88,31.512,6.88,47.034
		c0,12.356-1.396,24.526-3.812,36.424c-1.485,6.97-3.346,13.851-5.484,20.633c-5.672,17.465-13.565,34.205-22.95,49.442
		c-14.217,23.236-31.691,43.206-48.977,58.085c10.782-23.978,16.821-53.718,17.841-84.756c0.187-3.534,0.278-7.06,0.278-10.594
		C342.675,268.602,342.584,265.067,342.487,261.534z M113.101,155.769c25.463,3.257,49.622,12.365,71.372,25.554
		c-9.206,25.186-14.029,52.886-14.96,80.211c-0.098,3.533-0.188,7.068-0.188,10.503c0,3.534,0.09,7.06,0.278,10.594
		c1.02,31.038,7.06,60.778,17.849,84.756c-17.294-14.878-34.767-34.849-48.985-58.085c-9.385-15.237-17.278-31.977-22.95-49.442
		c-2.138-6.782-3.999-13.663-5.484-20.633c-2.416-11.899-3.812-24.068-3.812-36.424C106.221,187.281,108.36,171.57,113.101,155.769z
		 M90.151,373.419c-31.887-20.804-56.42-53.898-69.708-106.401c4.832-4.179,10.774-7.443,17.744-9.76
		c8.741-2.971,19.065-4.456,30.491-4.456c8.276,0,17.098,0.742,26.207,2.415c9.663,36.156,28.434,68.768,49.908,94.967
		c15.89,19.244,33.168,35.046,50.086,46.202c3.901,2.596,7.811,4.922,11.622,6.881C161.891,402.702,121.932,394.239,90.151,373.419z
		 M284.312,392.198c-0.277,0.18-0.555,0.466-0.832,0.654c-5.762,4.366-11.899,7.149-18.592,8.358
		c-0.457,0.098-0.832,0.098-1.298,0.196h-0.367c-0.376,0.089-0.841,0.089-1.306,0.18c0,0,0,0-0.098,0
		c-0.628,0.048-5.158,0.082-5.811,0.114c-0.654-0.032-5.191-0.066-5.828-0.114c-0.089,0-0.089,0-0.089,0
		c-0.474-0.09-0.939-0.09-1.315-0.18h-0.367c-0.466-0.098-0.832-0.098-1.298-0.196c-6.692-1.208-12.822-3.992-18.592-8.358
		c-0.278-0.188-0.547-0.474-0.832-0.654c-11.899-9.385-22.118-26.108-29.088-47.303c-4.929-14.87-8.178-31.879-9.663-49.818
		c-0.653-7.524-1.029-15.148-1.029-22.949v-0.09c0-27.137,4.098-55.016,12.455-80.023c1.396-4.179,2.889-8.178,4.464-12.079
		c0.833-1.951,1.673-3.901,2.604-5.852c10.308-23.137,29.609-47.964,48.577-60.134c18.95,12.169,38.252,36.996,48.56,60.134
		c0.93,1.951,1.771,3.901,2.603,5.852c1.584,3.901,3.069,7.9,4.464,12.079c8.357,25.007,12.455,52.886,12.455,80.023v0.09
		c0,7.802-0.376,15.425-1.029,22.949c-1.485,17.939-4.733,34.948-9.662,49.818C306.43,366.09,296.211,382.813,284.312,392.198z
		 M421.849,373.419c-31.78,20.82-71.74,29.283-116.35,29.847c3.82-1.959,7.721-4.285,11.622-6.881
		c16.919-11.156,34.197-26.957,50.086-46.202c21.474-26.199,40.245-58.812,49.908-94.967c9.108-1.673,17.93-2.415,26.214-2.415
		c11.426,0,21.742,1.485,30.483,4.456c6.97,2.317,12.911,5.582,17.743,9.76C478.269,319.521,453.735,352.615,421.849,373.419z"/>
        </g>
    </defs>

    <circle r="235" fill="orange" stroke="black" stroke-width="4"/>
    <!--<circle r="225" fill="url(#gradient)" stroke="black" stroke-width="2"/>-->
    <circle r="225" fill="url(#gradiente9)" stroke="black" stroke-width="2"/>



    <use xlink:href="#FLOORR" x="-258" y="-850" transform="scale(0.28) rotate(22.5)"/>
    <use xlink:href="#FLOORR" x="-258" y="-850" transform="scale(0.28) rotate(67.5)"/>
    <use xlink:href="#FLOORR" x="-258" y="-850" transform="scale(0.28) rotate(112.5)"/>
    <use xlink:href="#FLOORR" x="-258" y="-850" transform="scale(0.28) rotate(157.5)"/>
    <use xlink:href="#FLOORR" x="-258" y="-850" transform="scale(0.28) rotate(202.5)"/>
    <use xlink:href="#FLOORR" x="-258" y="-850" transform="scale(0.28) rotate(247.5)"/>
    <use xlink:href="#FLOORR" x="-258" y="-850" transform="scale(0.28) rotate(292.5)"/>
    <use xlink:href="#FLOORR" x="-258" y="-850" transform="scale(0.28) rotate(337.5)"/>



    <!-- <use xlink:href="#baseElipse" /> -->

    <use xlink:href="#puntas" transform="scale(0.9) rotate(22.5)"/>
    <use xlink:href="#puntas" transform="scale(0.9) rotate(60)"/>
    <use xlink:href="#puntas" transform="scale(0.90) rotate(120)"/>

    <use xlink:href="#baseElipse2" transform="scale(0.9) rotate(67.5)" stroke="black"/>
    <use xlink:href="#baseElipse" transform="scale(0.8) rotate(134.5)"/>



     <use xlink:href="#puntas" transform="scale(0.58) rotate(22.5)"/>
    <use xlink:href="#puntas2" transform="scale(0.57) rotate(22.5)"/>
     <use xlink:href="#puntas" transform="scale(0.56) rotate(22.5)"/>
    <use xlink:href="#puntas2" transform="scale(0.55) rotate(22.5)"/>
     <use xlink:href="#puntas" transform="scale(0.54) rotate(22.5)"/>
    <use xlink:href="#puntas2" transform="scale(0.53) rotate(22.5)"/>
     <use xlink:href="#puntas" transform="scale(0.52) rotate(22.5)"/>
    <use xlink:href="#puntas2" transform="scale(0.51) rotate(22.5)"/>
     <use xlink:href="#puntas" transform="scale(0.50) rotate(22.5)"/>



    <use xlink:href="#baseElipse3" transform="scale(0.50) rotate(22.5)"/>
     <use xlink:href="#baseElipse" transform="scale(0.49) rotate(22.5)"/>
    <use xlink:href="#baseElipse3" transform="scale(0.48) rotate(22.5)"/>
     <use xlink:href="#baseElipse" transform="scale(0.47) rotate(22.5)"/>
    <use xlink:href="#baseElipse3" transform="scale(0.46) rotate(22.5)"/>
     <use xlink:href="#baseElipse" transform="scale(0.45) rotate(22.5)"/>
    <use xlink:href="#baseElipse3" transform="scale(0.44) rotate(22.5)"/>
     <use xlink:href="#baseElipse" transform="scale(0.43) rotate(22.5)"/>
    <use xlink:href="#baseElipse3" transform="scale(0.42) rotate(22.5)"/>









    <use xlink:href="#baseElipse2" transform="scale(0.4) rotate(135)"/>
    <use xlink:href="#baseElipse" transform="scale(0.39) rotate(135)"/>
    <use xlink:href="#baseElipse2" transform="scale(0.38) rotate(135)"/>
    <use xlink:href="#baseElipse" transform="scale(0.37) rotate(135)"/>
    <use xlink:href="#baseElipse2" transform="scale(0.36) rotate(135)"/>
    <use xlink:href="#baseElipse" transform="scale(0.35) rotate(135)"/>
    <use xlink:href="#baseElipse2" transform="scale(0.34) rotate(135)"/>
    <use xlink:href="#baseElipse" transform="scale(0.33) rotate(135)"/>
    <use xlink:href="#baseElipse2" transform="scale(0.32) rotate(135)"/>
    <use xlink:href="#baseElipse" transform="scale(0.31) rotate(135)"/>
    <use xlink:href="#baseElipse2" transform="scale(0.30) rotate(135)"/>
    <use xlink:href="#baseElipse" transform="scale(0.29) rotate(135)"/>
    <use xlink:href="#baseElipse2" transform="scale(0.28) rotate(135)"/>
    <use xlink:href="#baseElipse" transform="scale(0.27) rotate(135)"/>


    <use xlink:href="#puntas3" transform="scale(0.3) rotate(22.5)"/>

    <use xlink:href="#baseElipse" transform="scale(0.2) rotate(135)"/>
    <use xlink:href="#baseElipsee" transform="scale(0.1) rotate(135)"/>
    <circle r="42" fill="url(#gradiente9)" stroke="black" stroke-width="2"/>
    <circle r="20" fill="url(#gradiente9)" stroke="black" stroke-width="2"/>

    <use xlink:href="#puntas2" transform="scale(0.15) rotate(24)"/>

    <use xlink:href="#hojita" x="-65" y="-400" transform="rotate(25) scale(0.44)"/>
    <use xlink:href="#hojita" x="-65" y="-400" transform="rotate(70) scale(0.44)"/>
    <use xlink:href="#hojita" x="-65" y="-400" transform="rotate(115) scale(0.44)"/>
    <use xlink:href="#hojita" x="-65" y="-400" transform="rotate(160) scale(0.44)"/>
    <use xlink:href="#hojita" x="-65" y="-400" transform="rotate(205) scale(0.44)"/>
    <use xlink:href="#hojita" x="-65" y="-400" transform="rotate(250) scale(0.44)"/>
    <use xlink:href="#hojita" x="-65" y="-400" transform="rotate(295) scale(0.44)"/>
    <use xlink:href="#hojita" x="-65" y="-400" transform="rotate(340) scale(0.44)"/>
    <use xlink:href="#coret" y="-40" transform="scale(5) " />
    <use xlink:href="#coret" y="-40" transform="scale(5) rotate(45) " />
    <use xlink:href="#coret" y="-40" transform="scale(5) rotate(90) " />
    <use xlink:href="#coret" y="-40" transform="scale(5) rotate(135) " />
    <use xlink:href="#coret" y="-40" transform="scale(5) rotate(180) " />
    <use xlink:href="#coret" y="-40" transform="scale(5) rotate(225) " />
    <use xlink:href="#coret" y="-40" transform="scale(5) rotate(270) " />
    <use xlink:href="#coret" y="-40" transform="scale(5) rotate(315) " />
<use xlink:href="url(#Page1)" transform="scale()"/>
</svg>
